<?xml version="1.0" encoding="UTF-8"?>
<svg id="Layer_2" data-name="Layer 2" xmlns="http://www.w3.org/2000/svg" viewBox="0 0 927.94 792.1">
  <defs>
    <style>
      .cls-1 {
        fill: #f8f9f9;
      }

      .cls-2 {
        fill: #a95827;
      }
    </style>
  </defs>
  <g id="Layer_1-2" data-name="Layer 1">
    <path class="cls-2" d="M397.72,649.04c.41-.06,2.86-.98,2.49-1.99-16.23-.82-37.35-1.03-49.99-12l226.99,1c-1,1.63-4.55,3.5-6.29,4.2-13.43,5.36-30.38,5.65-44.71,6.8,1.2,2.34,7.04,2.64,9.63,2.86,16.86,1.43,38.05-1.36,52.53-10.23,3.68-2.26,3.29-4.99,9.32-5.67l259.86.19c4.81,8.03,7.77,14.04,17.72,16.45l-.03,116.71c-3.68,2.51-8.41,3.15-11.58,6.63-3.01,3.29-2.51,6.85-5.08,9.92l-788.93.18c-4.75-.45-3.88-6.74-7.45-10.55-3.92-4.18-10.47-3.43-11.04-7.96v-114.88c.17-.65,9.57-4.65,11.55-6.67,2.77-2.83,2.52-6.31,5.13-8.87,82.58-1.66,165.36,1.73,247.91-.09,4.6-.1,9.16-1.77,14.01-1.1,3.42.47,10.99,7.42,15.45,9.54,3.72,1.76,14.8,5.51,18.49,5.51,9.91,0,24.83,1.28,34,0ZM210.22,702.03l-.95-27.54c-1.94-8.9-4.69,2.45-8.52,2.52-1.76.03-6.42-3.15-9.08-3.92-34.59-9.94-59.55,19.12-50.74,52.74,8.29,31.63,53.88,40.05,68.31,10.9.58-1.17,3.46-.81,1.82-6.04-1.76-5.61-5.75,3.61-6.83,4.84-16.01,18.22-41.58,13.99-47.71-10.3-3.36-13.33-2.03-37.24,11.35-45.06,9.13-5.33,23.1-3.19,30.35,4.36,4.12,4.29,6.08,13.92,8.51,16.49,1.18,1.25,1.9,1.13,3.49,1ZM629.01,671.34c-47.42,4.41-49.09,79.15-.17,83.58,59.51,5.39,60.28-89.17.17-83.58ZM425.22,753.04c1.09,1.13,27.27,0,31.5,0,.36,0,1.72-1.51,1.5-2.49-.36-1.6-5.82-2.09-7.54-3.47-1.42-1.15-2.43-3.97-3.32-5.68-10.23-19.75-14.96-45.61-24.97-65.03-3.27-6.34-7.14-6.53-10.35,0-5.79,11.76-22.94,66.41-29.83,71.17-2.97,2.05-7.86.56-6.99,5.51h25.5c.36,0,1.71-1.51,1.49-2.49-.52-2.36-10.41-.46-8.79-8.76.22-1.14,4.79-12.29,5.27-12.78.97-.99,1.76-.88,2.97-1.03,4.94-.59,18.15-.57,23.11,0,1.74.2,2.24.07,3.36,1.64s5.16,13.13,5.15,14.96c-.02,5.81-7.46,3.87-8.06,4.48-.14.14-.14,3.83,0,3.98ZM218.22,753.04h34c1.32-6.01-3.11-3.44-7.24-5.26-.91-.4-3.76-2.75-3.76-3.24v-26c0-2.01,6.05-1.88,7.75-.24,3.93,6.98,8.35,13.96,13.03,20.46,1.41,1.96,9.67,13.62,10.43,14.06.88.51,18.31.58,20.29.22,2.45-.44,3.7-3.17,1.87-3.99s-4.89-.52-7.72-2.16c-1.68-.98-3.77-3.34-5.16-4.84-2.48-2.67-18.17-24.44-18.51-26.51s.47-1.2,1.43-1.59c5.96-2.42,10.19-2.56,14.58-8.42,10.64-14.2-.48-30.52-16.6-32.39-9.03-1.05-31.99-1.2-40.94-.16-2.33.27-5.12,2.25-3.45,4.05.48.52,8-.6,8.98,4.53l.07,62.03c.08,6.89-9.96,3.22-9.05,9.45ZM383.22,673.04h-61c.16.97-.25,3.71,0,3.98.68.69,7.79-1.68,8.93,5.58-1.2,18.98,1.81,40.29.11,58.98-.2,2.16-.17,4.45-2.1,5.9-3.89,2.92-9.49-1.04-7.95,5.55h35c2.02-8.49-11-1.33-11-8.5v-29.5h17.5c2.94,0,3.54,14.95,9.49,12-2.18-10.54.06-20.47,0-31-7.44-2.53-4.17,13-10.5,13h-16.5v-29.5c0-.11,1.39-1.5,1.5-1.5h21c.27,0,4.22,1.76,4.85,2.15,6.17,3.84,5.95,14.1,6.71,14.79.42.38,2.92-.12,3.94.06v-22ZM492.72,673.04h-33.5c-1.84,6.38,5.6,3.32,8.45,7.05,1.19,1.55,1.42,4.47,1.59,6.42,1.5,18.22-1.14,38.52-.1,56.98-1.06,6.78-7.18,4.87-7.88,5.63-.37.4.12,2.92-.06,3.94h59c.21-2.84,3.8-21.23,2.99-22-.14-.13-3.51-.17-3.87.13-.75.62-2.89,10.58-7.62,13.87-1.55,1.08-6.49,2.99-8.01,2.99h-20c-.11,0-1.5-1.39-1.5-1.5v-63c0-5.25,7.78-6.89,12-6.5.26-1.32-.13-3.61-1.5-4ZM549.22,747.04v-65.5c0-3.34,9.49-3.95,10.99-5.01,2.01-1.42.15-3.49-.49-3.49h-34.5c-2.01,6.71,7.05,2.57,9.48,8.02l.5,63.46c-1.22,6.4-9.98,1.77-7.98,8.52h59c.67-5.97,4.02-13.73,4.04-19.55.01-3.49-2.85-5.13-4.85-1.75-2.79,4.71-2.4,11.53-9.62,14.38-2.55,1.01-13.66,1.89-17.04,1.98s-6.24-.47-9.53-1.05ZM705.72,673.04h-32.5c-.27,6.01,8.93,3.06,10.01,10.49l24.23,69.27c2.44,1.56,5.6,2.07,7.22-.81,4.41-14.04,9.85-27.82,14.09-41.9,1.07-3.56.23-11.06,5.44-10.04l18.65,54.09,6.39-1.79c7.78-24.18,15.26-48.65,24.53-72.24,2.05-2.81,9.07-2.02,8.45-6.55-8.34-1.87-16.63,1.01-25.01.5-1.8,4.61,5.91,3.66,6.86,5.14.53.82.25,4.94.06,6.28-1.94,13.65-10.62,31-14.41,44.57l-17.24-47.66c.35-7.83,11.75-1.74,9.74-9.33h-34c-.81,5.91,1.07,3.08,4.01,4.46,4.55,2.12,7.01,7.25,8.03,12.02l-15.54,41.5c-1.29-.78-1.3-2.01-1.79-3.19-2.96-7.1-13.96-39.28-14.49-45.55-.58-7.03,7.34-3.53,8.78-5.25.58-.69-.28-3.65-1.5-3.99Z"/>
    <path class="cls-2" d="M598.22,632.04c.19-2.95,2.29-6.15,5.45-6.05l262.41.19c.82,10.33,6.16,17.41,17.15,16.86l.06,131.39c-6.93,2.55-11.71,2.74-15.25,9.92-1.51,3.06-1.05,8-5.26,7.74H66.68c-8.99-.82-5.25-4.73-8.9-10.11-1.02-1.51-4.77-4.69-6.49-5.51-3.56-1.69-8.37-.54-8.11-4.89l.04-128.55c6,.65,13.48-2.88,15.91-8.59,1.09-2.56.82-6.78,3.08-7.92l255.55-.53c4.11.75,10.62-.03,9.95,6.06l-263.35-.88c-1.35,10.94-6.01,14.68-16.21,17.52-.15,2.68,1.05,5.16,1.11,7.81.93,37.79-1.26,76.1.54,113.66,2.69.6,5.4,1.18,7.67,2.85.25.18,4.31,4.04,4.48,4.3,1.24,1.91.36,6.87,4.01,8.68l794.61.09c3.24-8.53,7.21-14.85,17.08-15.93,1.35-39.92.19-80.47.59-120.63-.76-3.94-8.49-2.94-12.07-5.93-4.64-3.87-4.3-11.56-4.94-11.56h-263Z"/>
    <path class="cls-2" d="M541.22,628.05c.04,1.49-3.55,1.46-4.8,1.68-3.28.58-7.34,1.18-10.64,1.36-38.09,2.07-85.77,1.47-124.09,0-2.58-.1-19.47-1.4-19.47-2.54l38.46-2.55c40.28-.08,80.43-.16,120.54,2.06Z"/>
    <path class="cls-2" d="M554.22,494.04h-2c-.1-4.39-.13-8.87,1.5-13.01.94,0,.41,11.25.5,13.01Z"/>
    <path class="cls-2" d="M374.22,491.04h-1c.07-1.5-.43-9.02.5-9.01.27,1.98,1.46,4.82,1.46,6.7,0,1.5-.96,2.19-.96,2.31Z"/>
    <path class="cls-2" d="M731.22,495.04c1.91.37,5.95-.14,6,1.99-2.31-.09-4.69.16-7,.01l1-2Z"/>
    <path class="cls-1" d="M731.22,495.04c-54.59-10.5-106.22,13.88-158,26.99.29-1.24,1.62-2.19,2.65-2.84,28.23-17.81,63.54-20.44,91.87-38.13,18.08-11.28,33.45-27.89,40.49-48.02,1.81.37,1.86,1.97,2.02,3.46,1.1,9.87-4.95,24.22-11.03,31.53,6.78-2.75,15.75-12.08,18.87-18.61,14.04-29.39-13.8-54.92-27.9-77.86-13.73-22.33-27.7-57.58-8.48-80.52,2.32,17.04,4.45,33.72,13.07,48.92,7.12,12.55,34.97,45.86,48.6,49.4,19.69,5.11,32.21-18.73,38.99-33.65,32.33-71.16,14.81-164.8-24.76-229.59-16.14-26.43-37.78-47.64-62.18-66.09-4.91-3.72-12.33-6.81-15.24-11.99h14.5c27.71,0,62.89,45.56,81.01,62.99,5.84,5.62,13.32,12.07,17.99,1.01s.94-36.75-2.43-48.47c-6.7-23.29-20.16-43.23-40.06-57.03,33.62-3.18,55.21,34.16,64.27,61.73,4.57,13.91,5.94,31.86,11.55,44.45,5.07,11.39,15.11,13.69,20.66,1.31,13.25-29.56,5.76-82.47-20.57-103.4-5.38-4.27-10.23-5.4-15.64-8.35-1.17-.64-1.68.05-1.28-2.24h15.5c9.97,0,25.17,11.08,31.47,18.53,25.1,29.7,16.04,65.22,21.15,99.85,1.76,11.92,6.42,28.22,21.78,20.02,17.54-9.38,12.86-48.04,5.6-63.39-1.58-3.35-4.53-5.58-5.49-9,10.39,2.33,19.02,15.18,22.85,24.64,20.52,50.57-29.6,86.29-45.62,129.09-4.23,11.28-9.91,33.78,10.21,28.21,13.12-3.64,24.08-20.56,28.07-32.92,1.15-3.55,1.46-7.69,1.45-10.45,0-.34,3.42-1.65,2.52-5.56,6.38,7.52,5.17,20.82,3.01,30-8.61,36.74-53.66,52.14-70.68,84.32-4.28,8.1-12.11,30.64,1.74,32.61,19.59,2.78,37.71-13.32,46.93-28.93,4.16,1.8-2.26,16.93-3.96,20.03-18.4,33.41-60.08,26.33-81.45,44.55-8.54,7.27-7.88,21.17,5.37,22.47,12.4,1.21,25.95-2.1,36.47-8.63l13.07-9.41c-1.86,13.69-13.48,24.88-24.69,31.8-27.65,17.07-62.49,14.59-84.28,41.72-18.05,22.47-10.46,46.75,20.95,35.95,11.8-4.05,26.69-16.3,33.22-26.78,3.85-6.18,5.47-13.53,9.31-19.67,12.05,23.03-8.49,47.27-27.58,58.4-36.01,20.99-72.93,8.75-111.41,12.59-27.59,2.75-65.04,13.32-87.83,29.17-16.43,11.43-34.23,29.44-33.69,50.81l-10.97-2.03c3.44-17.3,14.71-33.01,27.96-44.48,4.64-4.01,10.19-7.28,15.12-10.91.49-.36,3.71-1.13,1.89-2.57s-15.52,8.7-17.89,10.6c-14.25,11.36-26.55,27.94-29.15,46.37l-9.95-1.99,5.99-12.98c-2.25-2.37-7.49,11.55-8.13,11.91-.49.28-8.75-1.99-9.4-2.88-1.47-2.02,5.54-7.25,7.05-9.02,30.9-36.16,19.78-45.02,17.49-88.01-.09-1.76.44-13.01-.5-13.01-1.63,4.14-1.6,8.62-1.5,13.01.8,36.77,11.73,53.29-15.97,84.53-5.83,6.57-11.9,15.06-20.02,6.49,19.7-10.99,28.42-33.59,27.03-55.55-.22-3.54-1.67-6.87-1.96-10.13-.43-4.88,1.08-11.19-1.09-16.33-1.7-.19-1.09,3.45-1.03,4.54,1.19,24.16,4.94,45.64-12.44,65.47-2.07,2.36-11.46,11.2-13.78,10.86-1.86-.27-7.93-5.53-6.73-6.87,4.69-.2,8.48-2.66,12.01-5.5,11.4-9.17,13.11-23.62,13.99-37.02,1.59-24.44-1.5-60.36,10.49-81.5,3.96-6.99,8.05-9.72,16.52-8.99-.62,18.08-2.28,36.35.12,54.38.77,5.73,2.83,17.22,6.45,21.55,4.75,5.69,9.32,4.11,15.63,2.78,16.77-3.53,34.69-10.96,51.58-15.42,35.54-9.39,60.21-12.74,97.22-10.28,2.31.15,4.68-.1,7-.01-.04-2.13-4.09-1.62-6-1.99ZM809.22,96.04c1.54,19.11,1.14,39.64,6.31,58.2.29,1.03.24,3.03,1.68,2.79,1.5-7.38-1.09-14.34-1.86-21.62-1.42-13.44-2.29-26.99-4.13-40.37-.47-3.43-.63-6.57-1.52-9.99-.3-1.14.07-3.25-1.47-3-.6,4.78.62,9.33.99,13.99ZM867.21,172.03c1.99-16.45.97-34.83-1.11-51.37-.15-1.21-.44-5.46-1.87-5.62l.95,49.53,2.03,7.45ZM775.05,124.24c-.58-.34-2.69-.66-2.82.29,9.22,13.53,17.44,28.89,24.17,43.83,2.12,4.71,3.39,9.81,5.56,14.48.65,1.41-.6,2.73,2.26,2.18-3.48-13.95-9.93-28.06-16.82-40.67-1.41-2.58-11.32-19.53-12.34-20.12ZM883.23,161.03c15.05.89,29.77-15.05,31.98-28.98l-5.58,9.91c-4.42,6.46-9.94,11.43-16.73,15.27l-9.68,3.81ZM833.22,146.03c-3.86-.8-1.01,5.06-.95,7.46.45,18.44-1.42,37.61-5.53,55.55-1.32,5.75-4.1,11.04-4.51,16.98,2.59.51,1.75-.56,2.5-1.95,1.57-2.89,2.82-7.08,3.76-10.28,6.41-21.91,6.97-45.18,4.73-67.77ZM829.21,281.03c14.58-32.57,26.75-70,20-105.99-1.74-.24-.94,2.27-.99,3.48-.93,25.01-1.58,42.88-8.74,67.27-3.03,10.35-10.03,23.39-12.07,32.94-.45,2.12-.63,2.62,1.79,2.29ZM815.23,249.04c1.44,53.03-11.71,100.95-38.2,146.3-2.79,4.78-7.36,9.12-8.32,14.67,3.05-2.68,5.37-6,7.73-9.26,27.53-38.06,44.53-100.42,40.78-147.23-.09-1.16-.31-4.48-2-4.49ZM850.22,268.04c-8.36,27.02-21.84,52.08-33.99,77.51-.02.82,2.03.67,2.47.53,2.82-.89,23.67-47.02,26.01-53.06,3.54-9.15,4.43-15.93,6.52-24.98.04-.18,1.41-1.19,1.74-2.71.53-2.43,1.64-5.96.76-8.3-2.18,3.26-2.39,7.43-3.5,11.01ZM887.22,261.05c-6.23.35-11.61,4.6-18.01,3.99.14.82-.21,2.73.01,2.99.63.75,17-3.86,17.99-6.99ZM850.22,356.04c-15.48.15-33.36,4.02-43.99,15.98,6.57-1.37,12.28-6.44,18.73-8.76,7.72-2.78,15.79-2.76,23.11-4.94,1.73-.52,2.61.36,2.16-2.28ZM714.23,478.03c7.73-3.16,15.33-14.06,19.16-21.32,15.18-28.75,4.95-52.54-15.65-74.68-2.66-2.86-6.54-7.89-10.51-7.98,15.91,16.59,32.45,36.69,29.88,61.37-1.38,13.25-12.03,29.51-19.99,40.01-1.1,1.45-2.91,1.09-2.88,2.6ZM833.22,413.05c-15.93,3.01-29.9-2.84-45.78,2.71-4.83,1.69-7.65,5.07-1.45,3.57,5.02-1.22,9.21-2.96,14.68-3.33,10.1-.68,19.53,2.8,29.34-.66,1.28-.45,2.92-.66,3.2-2.29ZM771.22,437.04c-2.5-.37-4.1,1.32-5.9,2.59-11.03,7.75-20.92,20.53-27.09,32.4,2.47.37,2.09.16,3.31-1.21,3.22-3.61,5.91-11.16,10.17-14.79l19.51-18.98ZM812.22,484.04l-13.27,10.22-14.73,8.76c5.8-.65,13.57-4.66,18.33-8.16,1.42-1.04,10.88-9.56,9.67-10.82ZM745.22,507.04c-38.36-1.81-62.58-4.89-100.76,6.74-2.04.62-6.17,1.39-7.23,3.25,10.12-.19,19.83-3.99,29.79-5.7,27.83-4.76,51.57-2.5,79.21-2.29,3.53.03,10.05,1.26,12-1.99-4.31-.17-8.7.19-13,0ZM601.22,529.05c-9.86-.45-22.9,9.85-32.46,7.97-1.81-.35-2.32-1.66-3.05-1.97-2.6-1.1-1.61,3.71,1.42,4.55,7.5,2.09,21.97-3.71,29.07-7.08,1.42-.67,4.5-1.96,5.02-3.47ZM373.22,491.04c-1.66,38.16-11.86,51.55,12.59,85.91,3,4.21,7.59,8.4,10.42,12.58.56.83,1.42.95.99,2.5-2.52-.33-9.06,3.01-10.87,1.88-1.21-.76-2.87-11-6.12-11.88l3.99,12.99-10,2.02c-1.2-21.43-17.27-39.73-34.28-51.23-4.55-3.07-10.24-7.65-15.72-7.77l24.01,17.48c8.85,9.83,18.55,18.91,21.69,32.31,2.07,8.82,3.47,12.47-7.71,11.21,1.75-23.26-18.89-41.48-37.08-52.42-21.16-12.73-55.98-23.54-80.54-26.46-46.48-5.52-105.92,14.08-137.21-34.79-5.78-9.03-11.15-27.13-3.66-36.34.83-1.02,1.3-1.35,2.02-.01.9,1.69,1.37,6.35,2.63,9.37,8.5,20.26,31.37,42.81,55.09,39.38,17.7-2.55,14.01-21.75,6.72-32.98-23.86-36.74-69.77-28.26-97.97-55.25-6.84-6.54-11.65-13.88-12.98-23.51l8.69,6.8c11.46,7.8,29.84,13.95,43.56,9.95,9.99-2.92,8.24-14.46,1.79-20.31-1.67-1.51-3.73-2.3-5.69-3.31-25.57-13.16-64.05-15.55-76.84-45.16-2.26-5.23-4.07-11.25-3.5-16.98l6.48,9.01c8.82,10.42,26.36,23.04,40.8,19.77,11.12-2.52,6.31-21.43,3.19-28.76C59.92,275.31-.17,264.3,5.23,210.55c.37-3.7,1.7-9.32,4.98-11.51.58,17.68,14.5,47.07,33.78,49.8,13.56,1.92,10.23-17.04,7.95-25.02C38.36,176.24-16.76,146.13,5.04,90.36c3.77-9.66,10.78-20.92,21.18-24.31-8.98,18.35-16.27,51.37-2.34,68.73,5.03,6.27,13.8,6.97,19.61,1.31,7.92-7.72,6.7-45.49,7.75-57.53,1.79-20.62,8.28-47.65,22.94-63.06,1.64-1.73,14.6-12.32,16.06-12.94S104.75.04,106.77,0c3.05-.05,6.2,1.66,9.45,1.05-4.81,4.12-10.38,5.86-15.47,10.02-24.59,20.09-31.61,63.61-24.04,92.98,1.97,7.64,9.55,26.32,19.54,14.52,8.38-9.91,11.87-40.51,17.21-54.79,5.85-15.63,16.88-34.52,29.75-45.25,8.61-7.18,19.52-12.79,31.01-11.48-21.26,15.64-35.29,38.98-40.7,64.79-1.92,9.16-6.25,40.99,3.95,45.45,9.28,4.05,20.7-14.51,26.23-20.26,15.68-16.31,38.25-39.67,59.73-46.27,7.59-2.33,15.85-3.66,23.77-2.22-19.21,14.24-38.52,28.57-54.51,46.49-58.69,65.8-91.9,203.18-37.32,279.34,13.34,18.62,24.89,20.24,42.31,5.65,27.84-23.33,40.54-44.71,45.45-80.56.38-2.77-.08-5.65.08-8.42,2.61-2.48,7.68,8.81,8.47,11.02,7.61,21.2-1.88,46.04-12.31,64.65-16.14,28.81-56.37,65.3-19.18,96.84.96.81,6.28,5.21,7.01,4.48-1.78-4.22-4.94-7.26-6.85-11.64-.66-1.51-3.15-7.88-3.15-8.85v-14.5l8.58,15.92c26.8,43.56,64.64,42.06,105.77,61.23,2.72,1.27,20.17,10.31,20.47,11.45.17.65-1.03,2.25-.84,2.4,10.96,1.02,14.1-11.19,15.71-19.79,1.37-7.31,2.16-18.17,2.34-25.66.29-11.74-.75-23.88-2.04-35.54,22.11.66,26.14,37.43,27.04,54.45,1.29,24.55-6.5,57.82,15.96,74.54-.2-.16-1.3-4.51-.99-4.97,13.04-5.73,44.22-1.68,30.82,18.31-.8,1.2-5.72,8.03-6.09,8.4-1.08,1.07-18.67,9.94-21.38,11.12-20.68,9-61.31,16.68-81.91,6.19-10.64-5.42-9.09-19.44.84-25.26,5.94-3.48,22.47-5.66,24.46,2.96,2.9,12.59-16.26,11.06-13.69,3.84.59-1.65,3.13-.89,2.93-2.58-6.97-1.3-10.56,7.46-5.52,12.02,10.39,9.4,47.51.54,60.05-4,8.42-3.05,26.3-11.07,28.82-20.23,3-10.91-14.25-2.51-18.35-5.8.47.35.89,1.77,1.99,2.46,2.62,1.63,5.86,1.66,7.99,4.04,0,.48-5.15,4.75-6.03,5.05-1.53.52-7.71-4.14-9.42-5.57-17.95-14.98-17.71-34.88-17.57-56.52.03-3.99,1.39-7.95.04-12.46l-1.87,7.62c.05,7.49-1.45,14.34-1.11,21.87.87,19.52,9.16,36.67,25.97,47.01.02.85-8.95,5.69-10.8,4.31-15.24-19.42-28.18-35.05-27.17-61.31.48-12.64,1.94-24.32,1.99-37.51,0-.13.95-.81.96-2.31,0-1.88-1.19-4.72-1.46-6.7-.93,0-.43,7.51-.5,9.01ZM116.22,94.04c-3.47,22.48-3.47,45.58-7.99,68,2.78.48,1.68-.58,2.25-2.19,7.38-20.89,5.62-43.31,7.74-64.81.49-4.98,1.96-9.94,1.99-15-1.59.2-2.09,3.65-2.48,5-.99,3.41-1.01,5.76-1.5,9ZM124.23,181.03c1.3,1.43,2.62-1.73,3.03-2.46,5.3-9.3,9.05-21.55,14.44-31.56s12.32-18.77,17.03-28.96c-8.12,4.08-36.94,60.3-34.51,62.97ZM63.22,158.54c.87-12.5-.64-25.9,0-38.5-1.47-.18-1.81,2.61-1.91,3.59-1.58,15.02-.94,30.32-1.09,45.41,2.61,3.43,1.86-6.68,1.96-7.53.14-1.3,1.01-2.51,1.04-2.96ZM39.22,161.03c1.24-1.16-1.55-2.68-2.3-3.19-6.64-4.48-9.98-5.88-15.67-12.33-.98-1.11-5.21-9.17-7.02-7.47,3.86,8.1,9.87,16.27,17.94,20.55,1.07.57,6.52,2.93,7.05,2.44ZM103.21,223.03c.35-1.48.84-2.39.58-4.02-1.49-9.45-5.39-19.28-6.56-29.49-1.57-13.67-.44-27.3-1.01-41-.05-1.22.76-3.72-.99-3.48-3.42,23.33-2.47,46.74,4.05,69.43l3.93,8.55ZM80.22,174.04c-2.84-.47-1.67.58-2.13,2.31-5.62,21.04,1.51,52.61,8.1,73.23,3.7,11.57,8.89,25.86,16.03,35.46-12.53-35.53-27.11-72.49-21.99-110.99ZM112.22,251.04c-1.23-1.62-1.81.02-2,1.48-1.01,7.95-.47,23.62.01,32.01,2.12,36.67,19.61,87,41.19,116.81,1.62,2.24,2.92,4.96,5.79,5.7l-20.16-36.33c-17.82-37.23-26.16-78.27-24.83-119.67ZM54.22,267.03c.39-2.18-.97-2.36-2.51-2.98-3.55-1.41-8.73-3.01-12.48-3.01l10.46,5.02,4.53.96ZM112.21,348.04c-8.06-18.71-18.32-36.51-26.17-55.32-3.33-7.99-5.56-18.12-8.75-25.25-.45-1.01-1.91-3.68-3.07-2.42-1.27,1.38,10.04,31.5,11.82,35.67,5.14,12.08,13.93,31.36,20.96,42.07,1.15,1.75,3.73,3.54,5.21,5.25ZM119.21,372.04c2.47-3.17-11.45-9.83-13.73-10.76-9.02-3.68-19.52-5.21-29.26-5.23-.49,3.01.73,1.61,2.43,2.02,14.24,3.49,28.39,3.86,40.56,13.97ZM219.22,374.05l-8.51,6.98c-22.09,24.58-32.66,50.07-13.3,80.33,1.4,2.18,11.1,15.16,12.33,15.68,1.76.74,1.72-.64,1.08-2.09-1.53-3.44-8.34-10.48-11.02-14.99-16.7-28.15-9.35-47.7,8.6-72.24,1.14-1.56,11.44-13.07,10.82-13.67ZM150.22,421.03c-15.55-12.59-36.66-5.98-54.99-6.98.16,1.61,4.29,1.88,5.51,1.98,12.16,1.02,24.68-1.37,36.73,1.27,4.37.96,8.18,3.85,12.75,3.74ZM187.21,471.04c-.44-6.51-7.13-14.12-11.48-19.01-4.95-5.57-12.95-14.47-20.51-14.98l16.51,13.98,15.48,20.01ZM119.22,487.03c1.18-1.18-1.99-3.97-3.99-2.98.22,1.32,3.15,3.83,3.99,2.98ZM120.72,488.04v1c.65-.33.65-.67,0-1ZM137.22,501.03l-2.67-2.82-12.32-8.17c-1.87,1.83,12.17,12.1,14.99,10.98ZM345.22,522.03c-.41-1.76-2.34-2.13-3.73-2.76-10.28-4.59-28.9-9.52-40.27-12.73-25.86-7.31-58.66-15.4-85.54-14.54-2.62.08-20.68,2.25-21.45,3.06-.67.7-.52,2.16,1.41,1.92,31.52-3.96,62.55,1.42,93.01,9.15,17.07,4.33,34.86,11.72,51.53,15.47,1.68.38,3.32.62,5.05.44ZM182.22,507.04c-.07,0-.54-.72-1.28-.67-3.15.2-6.58.82-9.73,1.17-.05,1.78,9.33,1.52,11.01,1.5,26.66-.34,49.39-2.55,76.18,2.32,10.03,1.82,20.07,5.52,29.98,7.03,1.4.21,3.21,1.81,2.84-.83-17.31-6.36-36.08-10.72-54.51-12.5-19.49-1.88-35.41.58-54.49,1.99ZM362.22,536.04c-12.39,4.25-22.87-6.96-34.99-5.99.27,1.76,2.02,1.72,3.23,2.26,5.05,2.24,19.66,8.41,24.41,8.68,3.13.17,7.16-1.29,7.35-4.94ZM481.22,228.54c0-1.24,1.7-5.49,1.43-7.57,27.88-5.53,64.31-3.45,75.35,27.8,12.81,36.27-5.68,72.12-45.29,75.26-6.51.52-19.64-1.32-24.78.22-1.23.37-5.16,4.35-7.4,5.6-13.5,7.56-28.77,13.51-44.25,15.25-1.11,21.49,1.29,44.13-.01,65.49-.31,5.06-2.46,20.57-6.48,23.52-4.24,3.11-18.82,4.25-19.55,4.95-.42.41.29,9.19-.01,11h97.01c-.35-1.89.5-10.38-.06-10.96-1.31-1.34-15.39.27-21.38-8.12-3.89-5.44-2.88-8.66-3.53-14.47-.14-1.25-1.04-2.67-1.04-2.96v-75.5c7.16.11,15.97-.2,22.9,1.64,10.4,2.75,24.34,30.27,30.29,39.67,9.59,15.15,18.62,30.71,28.38,45.62,5.5,8.4,11.25,16.66,17.44,24.56,17.75-.14,35.88-1.68,53.49.5l11.49.02c-.3-1.8.41-10.59-.01-11-.3-.29-6.06-.55-8.22-1.29-22.79-7.74-42.77-44.21-55.8-64.2-8.69-13.33-16.88-27-25.89-40.12-.48-1.89.23-1.15,1.17-1.61,4.94-2.43,11.25-3.88,16.43-6.6,43.38-22.76,49.64-83.56,5.62-108.99-35.35-20.42-112.63-10.85-154.85-12.15-6.69-.21-12.04-4.82-13.19,4.74s6.74,5.99,13.8,7.66c9.56,2.27,8.76,9.39,10.14,16.86.24,1.3,1.8,2.94,1.8,3.2v78c0,1.63-14.08,2.54-16.48,2.5-119.63-1.94-117.27-223.89,3.03-218.05,38.79,1.88,65.56,28.76,74.98,65.08.38,1.45-.64,2.85-.53,2.96,1.21,1.16,9.89-.55,12.01.02l-3-77.01c-2.75.45-6.91-.62-9.34-.04-1.3.31-1.13,6.55-7.97,6.69-7.23.15-22.51-6.23-30.68-8.16-106.91-25.27-202.13,50.22-169.28,162.28,28.37,96.76,176.75,118.04,222.45,29.92.93-1.79,5.46-11.6,4.75-12.6-.38-.53-10.41-5.85-11.82-4.96-.82.52-7.75,14.13-9.7,16.79-2.95,4.02-7.7,8.93-11.13,12.81-.6.68.07,1.9-2.29,1.28v-65.5ZM195.75,368.06l1.48-2.54C156.69,214.6,256.54,50.29,411,22.31c181.72-32.92,337.98,114.28,325.95,295.95-1.08,16.27-4.97,32.37-8.57,48.18l14.31,9.59c1.59-.35,4.4-15.12,5.05-17.98,26.64-118.33-26.4-243.44-126.6-309.43C487.47-39.41,313.28-2.75,223.81,128.13c-49.73,72.74-65.7,163.55-41.58,248.91l13.52-8.97ZM495.18,565.49c-9.61,1.85-16.18,10.2-10.22,19.34,14.6,22.4,82.8,38.31,106.66,28.09,20.64-8.84,10.66-29.99-8.93-30.89s-13.4,27.57,2.49,12.39l-2.95-4.38c8.86-.05,7.71,10.83.71,14.2-14.74,7.11-66.79-7.03-79.23-18.19-2.44-2.19-9.15-9.48-5.48-12.53,4.96-4.11,18.29,4.37,19.01-6.49-7.56-.84-14.31-3.04-22.05-1.55ZM660.22,535.47c-14.89,16.52-32.2,29.3-52.32,38.74-2.46,1.15-8.55,2.68-10.08,3.75-3.53,2.49,6.95,7.17,8.66,6.93,1.95-.27,15.27-7.48,18.05-9.06,10.42-5.88,22.76-14.38,31.71-22.29,1.82-1.61,17.84-16.85,15.98-18.51l-12,.43ZM327.75,578.01c-18.8-9.8-34.21-15.51-50.54-30.46-7.53-6.89-9.49-15.11-21.98-12.51-.35,1.52.34,2.35.93,3.56,4.05,8.41,33.39,30.79,42.38,35.62,2.53,1.36,20.94,9.76,22.28,9.83,3.02.16,6.05-4.07,9.41-4.03-.09-1.43-1.54-1.53-2.47-2.02ZM673.22,673.04c-.27,6.01,8.93,3.06,10.01,10.49l24.23,69.27c2.44,1.56,5.6,2.07,7.22-.81,4.41-14.04,9.85-27.82,14.09-41.9,1.07-3.56.23-11.06,5.44-10.04l18.65,54.09,6.39-1.79c7.78-24.18,15.26-48.65,24.53-72.24,2.05-2.81,9.07-2.02,8.45-6.55-8.34-1.87-16.63,1.01-25.01.5-1.8,4.61,5.91,3.66,6.86,5.14.53.82.25,4.94.06,6.28-1.94,13.65-10.62,31-14.41,44.57l-17.24-47.66c.35-7.83,11.75-1.74,9.74-9.33h-34c-.81,5.91,1.07,3.08,4.01,4.46,4.55,2.12,7.01,7.25,8.03,12.02l-15.54,41.5c-1.29-.78-1.3-2.01-1.79-3.19-2.96-7.1-13.96-39.28-14.49-45.55-.58-7.03,7.34-3.53,8.78-5.25.58-.69-.28-3.65-1.5-3.99h-32.5ZM218.22,753.04c-.91-6.23,9.13-2.56,9.05-9.45l-.07-62.03c-.98-5.12-8.5-4.01-8.98-4.53-1.66-1.79,1.12-3.78,3.45-4.05,8.96-1.04,31.92-.89,40.94.16,16.12,1.87,27.24,18.19,16.6,32.39-4.39,5.85-8.62,5.99-14.58,8.42-.96.39-1.78-.56-1.43,1.59s16.03,23.83,18.51,26.51c1.39,1.5,3.48,3.86,5.16,4.84,2.83,1.64,5.87,1.34,7.72,2.16s.58,3.54-1.87,3.99c-1.98.36-19.42.29-20.29-.22-.76-.44-9.02-12.1-10.43-14.06-4.68-6.5-9.1-13.48-13.03-20.46-1.7-1.64-7.75-1.77-7.75.24v26c0,.48,2.85,2.83,3.76,3.24,4.13,1.82,8.56-.75,7.24,5.26h-34ZM241.22,711.04c16.91,4.99,32.28-7.76,24.74-25.24-4.45-10.32-24.74-8.52-24.74-5.26v30.5ZM629.01,671.34c60.11-5.59,59.34,88.97-.17,83.58-48.92-4.43-47.25-79.17.17-83.58ZM625.95,678.26c-24.03,4.87-23.56,62.53.23,69.31,31.88,9.09,37.8-36.87,27.43-57.42-5.29-10.48-16.28-14.2-27.66-11.89ZM425.22,753.04c-.14-.14-.13-3.84,0-3.98.6-.61,8.04,1.33,8.06-4.48,0-1.82-4.09-13.46-5.15-14.96-1.12-1.57-1.62-1.44-3.36-1.64-4.96-.57-18.17-.59-23.11,0-1.22.14-2.01.03-2.97,1.03-.48.5-5.05,11.64-5.27,12.78-1.61,8.3,8.27,6.41,8.79,8.76.22.97-1.13,2.49-1.49,2.49h-25.5c-.87-4.95,4.02-3.46,6.99-5.51,6.89-4.76,24.04-59.41,29.83-71.17,3.22-6.52,7.09-6.33,10.35,0,10.01,19.42,14.74,45.28,24.97,65.03.89,1.71,1.89,4.54,3.32,5.68,1.72,1.38,7.17,1.87,7.54,3.47.22.97-1.14,2.49-1.5,2.49-4.23,0-30.41,1.13-31.5,0ZM424.22,722.04l-10.01-31c-1.42.12-1.57,1.47-2.03,2.46-2.6,5.64-8.49,19.7-9.73,25.27-.31,1.42-.32,2.83-.23,4.26,1.08.38,2.18-1,2.49-1h19.5ZM209.27,674.49c-1.94-8.9-4.69,2.45-8.52,2.52-1.76.03-6.42-3.15-9.08-3.92-34.59-9.94-59.55,19.12-50.74,52.74,8.29,31.63,53.88,40.05,68.31,10.9.58-1.17,3.46-.81,1.82-6.04-1.76-5.61-5.75,3.61-6.83,4.84-16.01,18.22-41.58,13.99-47.71-10.3-3.36-13.33-2.03-37.24,11.35-45.06,9.13-5.33,23.1-3.19,30.35,4.36,4.12,4.29,6.08,13.92,8.51,16.49,1.18,1.25,1.9,1.13,3.49,1l-.95-27.54ZM322.22,673.04c.16.97-.25,3.71,0,3.98.68.69,7.79-1.68,8.93,5.58-1.2,18.98,1.81,40.29.11,58.98-.2,2.16-.17,4.45-2.1,5.9-3.89,2.92-9.49-1.04-7.95,5.55h35c2.02-8.49-11-1.33-11-8.5v-29.5h17.5c2.94,0,3.54,14.95,9.49,12-2.18-10.54.06-20.47,0-31-7.44-2.53-4.17,13-10.5,13h-16.5v-29.5c0-.11,1.39-1.5,1.5-1.5h21c.27,0,4.22,1.76,4.85,2.15,6.17,3.84,5.95,14.1,6.71,14.79.42.38,2.92-.12,3.94.06v-22h-61ZM549.22,681.54c0-3.34,9.49-3.95,10.99-5.01,2.01-1.42.15-3.49-.49-3.49h-34.5c-2.01,6.71,7.05,2.57,9.48,8.02l.5,63.46c-1.22,6.4-9.98,1.77-7.98,8.52h59c.67-5.97,4.02-13.73,4.04-19.55.01-3.49-2.85-5.13-4.85-1.75-2.79,4.71-2.4,11.53-9.62,14.38-2.55,1.01-13.66,1.89-17.04,1.98s-6.24-.47-9.53-1.05v-65.5ZM459.22,673.04c-1.84,6.38,5.6,3.32,8.45,7.05,1.19,1.55,1.42,4.47,1.59,6.42,1.5,18.22-1.14,38.52-.1,56.98-1.06,6.78-7.18,4.87-7.88,5.63-.37.4.12,2.92-.06,3.94h59c.21-2.84,3.8-21.23,2.99-22-.14-.13-3.51-.17-3.87.13-.75.62-2.89,10.58-7.62,13.87-1.55,1.08-6.49,2.99-8.01,2.99h-20c-.11,0-1.5-1.39-1.5-1.5v-63c0-5.25,7.78-6.89,12-6.5.26-1.32-.13-3.61-1.5-4h-33.5Z"/>
    <path class="cls-2" d="M811.22,95.04l-2,1c-.37-4.66-1.59-9.22-.99-13.99,1.54-.24,1.17,1.87,1.47,3,.89,3.42,1.05,6.56,1.52,9.99Z"/>
    <path class="cls-2" d="M745.22,507.04c4.3.2,8.69-.16,13,0-1.95,3.25-8.47,2.02-12,1.99l-1-2Z"/>
    <path class="cls-2" d="M182.22,507.04v2c-1.68.02-11.06.28-11.01-1.5,3.15-.35,6.58-.97,9.73-1.17.74-.05,1.21.68,1.28.67Z"/>
    <path class="cls-2" d="M241.22,711.04v-30.5c0-3.26,20.29-5.06,24.74,5.26,7.54,17.48-7.83,30.22-24.74,25.24Z"/>
    <path class="cls-2" d="M625.95,678.26c11.38-2.31,22.37,1.41,27.66,11.89,10.37,20.55,4.45,66.51-27.43,57.42-23.79-6.78-24.26-64.44-.23-69.31Z"/>
    <path class="cls-2" d="M424.22,722.04h-19.5c-.31,0-1.42,1.38-2.49,1-.09-1.43-.08-2.84.23-4.26,1.23-5.57,7.13-19.64,9.73-25.27.46-.99.6-2.35,2.03-2.46l10.01,31Z"/>
  </g>
</svg>