<?xml version="1.0" encoding="UTF-8"?>
<svg id="Layer_2" data-name="Layer 2" xmlns="http://www.w3.org/2000/svg" viewBox="0 0 2387.54 489.93">
  <defs>
    <style>
      .cls-1 {
        fill: #a65520;
      }

      .cls-2 {
        fill: #f4f5f4;
      }
    </style>
  </defs>
  <g id="Layer_1-2" data-name="Layer 1">
    <g>
      <path class="cls-1" d="M645.33,389.07c1.28-6.71,4.67-11.99,5.09-19.12s-4.16-18.61-3.25-21.45c.7-2.18,10.91-6.95,13.96-9.49,8.71-7.24,20.26-18.89,20.95-30.86.28-4.79-3.74-13.32-3.29-13.96.54-.77,12.23-8.06,14.97-10.92,8.87-9.26,17.54-27.61,10.06-39.82-7.39-12.06-21.06,12.75-26.95,16.26-19.03,11.3-4.34-12.42.18-18.16,8.17-10.36,21.27-17.77,29.92-28.43,11.72-14.43,25.43-44.89,11.79-61.7-3.15-3.88-9.64-3.76-10-4.18-2.65-3.05,9.93-20.75,11.9-25.47s5.15-20.15,7.42-20.92l1596.95-.31c7.19-.42,6.05,7.88,8.78,12.89,4.76,8.75,10.69,14.15,19.17,19.18,3.52,2.09,10.91,3.58,12.86,5.48,4.67,4.55.01,30.78-.13,38.31-1.08,56.67,3.78,113.27,1.71,170.09-1.18,6.13-13.17,9.48-18.52,13.16-11.9,8.2-15.01,16.66-20.63,29.39H645.33ZM945.4,162.34c-7.54-1.12-8.49,8.44-15.8,8.49-4.98.03-14.97-6.09-20.84-7.68-68.63-18.54-120.54,38.07-105.63,105.63,16.46,74.59,127.42,87.01,150.58,11.98-9.15-4.76-13.56,8.95-19.32,14.78-30.51,30.91-80.08,25.52-95.98-17.03-16.62-44.48.68-121.8,61.99-105.33,17.11,4.6,25.26,13.28,33.35,28.34,1.98,3.68,7.61,20.03,8.55,20.63,1.62,1.03,5.84-.13,8.1.22l-5-60.01ZM1872.01,159.46c-100.58,3.56-111.12,154.46-11.78,170.84,125.51,20.69,136.76-175.25,11.78-170.84ZM970.41,327.39c2.47,2.6,62.85-1.98,71.69,0-.27-1.63.44-6.15-.02-6.62-.94-.97-23.32-.58-23.32-10.88v-54.18c5.07.48,11.72-1.49,15.95,1.55,12.69,16.85,23.68,35.05,36.73,51.62,2.96,3.76,14.86,20.18,18.16,20.18h40.01c3.16,0,2.53-8.52.57-9.75-1.63-1.02-9.35.03-14.6-2.89-2.83-1.57-10.86-10.19-13.52-13.16-14.45-16.14-25.61-36.94-39.95-53.42-.53-3.68.51-1.97,2.5-2.43,27.01-6.26,51.01-25.74,39.47-56.2-16.76-44.25-97.6-24.17-133.68-27.19-2.16,9.72,5.15,6.27,11.69,9.15,7.3,3.22,7.86,11.07,8.39,18.28,2.74,37.03-2.06,77.54-.22,114.95-2.35,16.66-17.17,11.46-19.66,14.51-.45.55-.41,6.25-.19,6.48ZM1315.5,327.39h55.01c3.1-13.65-17.61-2.4-19.71-16.2-.59-3.87,11.69-36.34,14-36.93l58.79,1.73c2.49,9.26,15.21,31.26,11.11,39.73-3.95,8.18-17.57.29-14.17,11.67h66.68c1.46-9.25-2.01-5.64-7.57-8.25-7.64-3.59-12.55-8.07-15.53-16.16l-53.78-140.43-16.67.79c-20.42,50.83-36.87,104.21-62.75,152.43-6.27,5.84-18.13,1.05-15.41,11.63ZM1744.78,315.72c-12.45,2.07-36.11,0-50.01,0-.18,0-2.5-2.32-2.5-2.5v-126.7c0-2.56,3.43-9.1,5.8-10.87,6.99-5.25,22.72.07,15.96-12.54l-71.77-.75c-1.37,12.63,3.12,8.33,10.43,10.42,9.37,2.69,10.52,7.51,11.32,17.02,2.3,27.47,2.94,88.17-.26,114.91-2,16.66-7.54,11.04-17.73,15.62-5.38,2.42-.67,7.98,3.67,7.17l122.6-.1c-1.3-9.61,10.67-38.04,5.88-45.03-1.24-1.81-3.04-2.06-5.02-1.66-1.33.27-9.43,20.16-12.52,24.19-3.2,4.18-10.69,9.99-15.83,10.84ZM2032.35,164.01h-70.02c-1.12,8.35,11.04,7.98,16.61,12.57,2.67,2.2,4.11,4.83,5.37,7.97l49.9,144.3c4.76.07,12.04,2.08,14.55-2.56l39.44-110.62,38.79,109.6c.64,5.06,14.06,4.97,15.58,2.79l49.51-145.2c1.49-3.35,3.01-6.67,6.35-8.66,7.61-4.53,16.77.63,13.95-11.87-.58-.83-2.13,1.67-2.48,1.67h-50.85c-2.11,9.76,4.98,6.6,11.19,9.65,6.81,3.34,6.23,9.11,5.33,16.05-2.12,16.33-22.21,71.86-29.38,88.97-.82,1.96-.83,4.02-2.98,5.32l-35.49-101.28c-.92-13.7,16.86-10.95,17.97-12.09.45-.46-.25-4.99.02-6.62-15.36-.48-30.48-2.11-45.93-1.77-3.48.08-21.43.76-22.18,2-4.58,7.51,8.12,7.71,12.93,10.75,13.37,8.44,10.61,23.73,6.88,36.58-7.12,24.51-20.47,49.12-26.75,74.13l-36.61-104.42c-.08-14.66,21.29-2.73,18.29-17.27ZM1325.5,164.01h-130.03c-2.83,12.27,12.79,4.95,18.43,14.07,6,9.7,1.16,19.78,1.43,28.44.98,30.88,5.37,65.63,1.61,96.5-.5,4.1-1.6,9.16-4.67,12-7.02,6.47-20.18.59-16.79,14.03,1.8.64,3.65-1.66,4.16-1.66h69.18v-8.34c-5.78,1.9-23.34-2.22-23.34-9.16v-60.85h35.84c1.47,0,6.18,4.32,7.28,6.05,5.48,8.6.1,22.19,13.56,18.96.48-15.81-.64-31.78-.07-47.59.18-5.05,5.94-23.65-5.93-14.26-4.99,3.95-2.34,25.17-14.84,25.17h-35.01c-.18,0-2.5-2.32-2.5-2.5v-50.01c0-5.42,3.99-9.89,9.28-10.72,11.16-1.76,47.07-1.19,55.66,5.79,10.06,8.17,8.98,27.97,10.07,29.11.49.51,7.96-.35,10-.02l-3.33-45ZM1568.9,164.01c-2.51-2.56-62.86,1.95-71.69,0-4.1,10.86,14.99,7.84,18.49,12.74,1.48,2.07,3,11.58,3.24,14.71,2.05,26.48,3.19,88.05-.2,113.28-.44,3.3-2.43,9.57-4.9,11.77-6.37,5.68-17.79.28-14.96,10.88h126.7c-.67-6.45,9.27-42.46,6.66-45.02-6.56-6.42-14.47,19.02-17.21,22.79-.33.46-7.75,7.46-8.24,7.74-7.39,4.22-46.54,6.13-55.34,4.45-1.83-.35-5.88-2.88-5.88-4.12v-130.03c0-.4,3.28-6.39,3.85-6.99,5.7-6.05,16.83-3.78,17.86-4.54,1.87-1.39,2.25-7,1.63-7.63Z"/>
      <path class="cls-1" d="M2345.76,80.66c-1,22.68,18.4,42.96,41.69,40l.09,247.44c-22.34,2.34-41.3,17.7-41.77,40.98H626.99c1.26-2.97,5.48-3,8.41-5.75,3.75-3.52,3.72-8.94,7.35-9.38l1690.29-.09c3.03-1.05,3.84-10.21,5.75-14.25,6.05-12.77,19.88-21.45,33.42-24.1l.04-217.21c-1.12-8.5-3.44-4.58-8.1-6.78-16.59-7.82-27.3-16.6-30.07-35.86H727.02v-15h1618.75Z"/>
      <path class="cls-2" d="M275.23,415.74c1.77-.49,3.97.66,5.82-1.63,6.15-7.6,6.72-50.59,4.19-61.71,19,1.24,20.72,34.21,21.73,49.1s-2.73,29.68,3.45,43.23c5.35,11.73,5.65,4.98,10.7,4.42,15.16-1.68,31.34,2.97,17.5,19.15s-61.04,27.46-79.55,17.79c-14.56-7.6-5.74-24.56,8.56-23.62,10.81.71,13.76,14.45-.73,11.61l1.66-4.97c-10.07-1.39-7.17,9.38-.48,11.3,14.6,4.2,53.83-4.83,62.9-18.08,7.1-10.38-4.82-8.28-12.4-8.22.53,3.08,12.59,3.78,4.54,7.11-5.23,2.16-10.36-1.53-13.73-5.43l5.86,10.81c-6.49,3.71-7.67-3.73-12.53-5.81,1.95,4.4,8.6,12.2-1.52,11.76-1.01-.04-.73-5.81-4.3-3.45-.21.14,1.79,3.27.15,4.19-8.52,4.77-6.62-4.47-8.88-11.33-.4-1.2-3.63-11.06-6.27-7.88-1.12,1.35,14.1,25.59-1.67,21.67,1.47-10.49-1.98-17.92-8.38-25.81-18.96-23.35-64.95-36.24-94.07-37.63-30.93-1.48-52.89,10.25-80.06-11.63-8.53-6.86-19.8-19.79-20.46-31.22-.21-3.53,2.19-16.61,5.91-9.24,7.01,13.87,9.69,23.91,25.29,31.39,33.96,16.27,34.98-15.93,11.75-35.09-22.58-18.62-67.91-14.43-73.36-49.16,7.14,9.69,53.28,23.86,42.45.03-7.07-15.54-76.76-18.4-68.32-55.04,4.12,13.16,44.23,35.81,42.47,11.03-2.79-39.29-65.77-47.88-59.76-96.71.18-1.45,1.7-11.32,4.79-7.69.57.67,1.89,13.09,3.54,17.31,3.53,8.99,26.75,32.77,29.81,16.88C47.01,166.24,5.94,131.4.92,104.07c-3.2-17.41,1.7-43.35,19.21-50.94-6.51,14.22-10.52,30.54-5.89,45.96,2.33,7.75,10.33,15.93,18.56,10.03s7.02-51.37,9.49-63.85C46.73,22.88,62.34-2.89,88.51.65c-2.7,3.47-7.32,4.94-10.87,8.28-17.12,16.12-21.34,43.4-19.11,65.88,1.56,15.82,11.73,35.43,20.79,10.82,4.9-13.33,5.69-27.52,11.77-41.58,8.57-19.83,22.01-37.51,44.97-40.03l-18.21,20.12c-10.34,15.33-17.82,38.84-16.07,57.45.55,5.85,2.53,14.16,10.12,11.76,4.24-1.34,30.18-31.68,37.43-37.72,10.92-9.1,26.11-18.67,40.87-15.81-7.91,7.08-17.19,12.84-25.02,19.99-55.89,51.03-84.35,150.76-53.08,221.51,4.45,10.08,16.28,32.08,29.77,28.72,21.34-5.33,52.64-54.48,46.69-77.65,11.27,3.33,9.95,27.04,7.59,36.77-7.38,30.48-44.81,54.32-34.33,87.49,1.64,5.2,6.47,9.95,11.69,11.62-2.08-3.94-4.1-9.14-4.82-13.5-.29-1.72-1.53-9.1,1.5-9.02,15.25,47.02,66.71,44.82,101.71,68.34-1.13-.29-21.37-5.16-13.35-.82,5.87,3.18,10.76,4.11,16.69,2.48ZM83.53,129c4.94-4.09,5.52-14.74,6.41-21.08,1.59-11.22,2.34-22.58,1.89-33.93-2.39.26-2.86,7.34-3.12,9.36-1.9,15.13-1.88,30.66-5.18,45.64ZM50.17,124.84c.9-11.02-.66-23.05,0-34.18h-1.65c1.03,2.62-1.68,6.26-1.68,7.5v39.18h1.65c-1.61-4.44,1.43-9.46,1.68-12.5ZM114.36,107.33v1.67c1.08-.56,1.08-1.11,0-1.67ZM96.85,140.66c3.74.78,3.77-1.78,5.07-4.08,4.14-7.37,8.45-17.68,10.78-25.88-7.89,8.26-10.82,19.95-15.85,29.96ZM15.98,115.7c-.59,2.04,1.99,5.25,3.37,6.6.59-2.04-1.99-5.25-3.37-6.6ZM75.18,142.34v-26.67l-3.41,14.09c1.18,3.61-2.92,13.92,3.41,12.58ZM31.83,125.69l-9.98-3.34c-2.26,4.05,9.72,6.61,9.98,3.34ZM60.18,144.01v30.84c0,1.51,3.07,6.05,1.67,9.18l3.39-2.54-5.06-37.48ZM76.83,165.67l-3.3-21.66c.16,5.19-.42,10.48.14,15.68.17,1.61.73,6.27,3.16,5.97ZM68.5,192.35c-.79-.84-3.61-1.16-3,2.15,1.27,6.94,4.68,17.81,9.67,22.86-1-3.46-5.78-24.06-6.67-25.01ZM85.18,199.02v31.67c4.96.99,3.19-2.32,3.41-5.89l-3.41-25.78ZM86.83,279.04l-29.97-75.01c.55,13.05,5.95,26.31,10.87,38.28,3.78,9.19,10.19,23.17,14.87,31.8,1.01,1.86,1.85,4.52,4.23,4.93ZM78.5,225.68c.38-2.04-2.44-8.53-3.31-6.65-.38,2.04,2.44,8.53,3.31,6.65ZM91.84,247.36c-5.74-7.02-.61,13.11-.19,14.46.83,2.7-1.36,4.71,3.53,3.88l-3.34-18.34ZM108.52,300.71c.34.99,2.98,16.08,6.66,11.66,2.1-2.53-5.59-10.09-6.66-11.66-3.41-10.01-6.81-20.07-11.22-29.69-1.09-2.37.98-4.54-3.77-3.64,2.37,12.42,8.21,23.39,15,33.33ZM159.37,309.05v1.67c1.08-.56,1.08-1.11,0-1.67ZM158.53,312.39c-2.46-2.89-3.66,2.2-4.31,3.13-9.57,13.56-11.29,25.55-6,41.36,2.42,7.22,7.9,12.27,11.15,18.87.08-7.45-6.51-14.12-8.7-21.32-2.96-9.71-3.02-17.38.41-27,1.12-3.14,8.75-13.52,7.45-15.03ZM118.52,314.04c-3.4-3.63-4.83,4.13.86,6.64-.15-1.44-.63-6.4-.86-6.64ZM121.03,322.39v1.67c1.08-.56,1.08-1.11,0-1.67ZM139.14,363.54c-3.12-4.83-4.67-11.92-12.28-11.13,1.62,4.66,7.43,6.51,10.12,9.51,1.18,1.31,1.16,5.1,1.57,5.47,1,.89,4.19.54,3.32-2.48-.44-1.55-2.21-.55-2.74-1.37ZM145.17,369.07c-5.59-4.55-2.21,10.64,1.69,6.65.31-.32-1.42-6.43-1.69-6.65ZM87.67,380.77c-1.65,1.16.9,2.29,1.7,3.27,1.66-1.09-.78-2.21-1.7-3.27ZM91,385.77l-.78.78,4.15,4.15.78-.78-4.15-4.15ZM97.67,390.77c-1.65,1.16.9,2.29,1.7,3.27,1.66-1.09-.78-2.21-1.7-3.27ZM185.21,390.74h-25.84c-1.06,0-15.43,3.64-11.64,5.04,1.36-.24,2.75-1.7,3.3-1.7h34.18v-3.33ZM205.21,394.08c-4.61,2.5-19.06-5.88-18.32,1.65,4.61-2.5,19.06,5.88,18.32-1.65ZM255.21,409.1l-48.32-13.35c-.87,4.98,1.33,2.63,3.91,3.5,11.59,3.92,27.13,8.53,38.99,11.11,1.68.37,5.85,1.69,5.43-1.26ZM206.89,404.08c-23.09-3.98-46.91-5.17-70.04-.84,23,2.55,46.59-1.76,69.23,4.14l.81-3.3ZM290.24,434.91c-1.35-10.5.99-23.38,0-34.18l-3.41,17.42c.03,9.58-1.17,19.95,5.92,27.58,2.87-3.07-2.21-8.51-2.51-10.83ZM298.57,404.91c-1.52,5.98,0,25.5,0,33.34,0,1.31,5.46,12.43,6.65,10.84-4.84-15.88-6.12-30.06-3.33-46.68-1.05-.05-3.17,1.94-3.32,2.5ZM251.88,419.09c-2.34-1.2-4.45,1.05-3.32,1.63,2.34,1.2,4.45-1.05,3.32-1.63ZM281.89,425.75c-10.31,1.88-18.33-4.95-28.33-4.99.05,2.37,4.73,3.27,6.72,4.09,3.66,1.51,8.76,3.52,12.58,4.09,3.11.46,10.61,1.94,9.02-3.18ZM261.3,431.38c-1.01-.57-7.92-4.09-7.72-.65l10.39,5.01,17.93,16.67-13.43-15.75c-3.29-.19-6.02-4.64-7.16-5.28ZM294.4,447.42v1.67c1.08-.56,1.08-1.11,0-1.67ZM296.05,450.79c-.44,3.08,3.05,6.28,5.03,8.27.02-2.8-3.35-6.15-5.03-8.27ZM308.57,450.76c-1.82-1.82-5.13,1.5-3.32,3.32s5.13-1.5,3.32-3.32Z"/>
      <path class="cls-2" d="M400.26,454.09c-.6.51-1.07,1.19-1.67,1.67-3.98.75-19.96-5.44-10.91,6.74,7.27,9.79,30.06,16.32,41.97,18.03,10.63,1.53,28.03,4.59,25.6-11.43-5.46-1.46-2.38,3.95-3.42,4.81-1.19.99-7.54-.25-9.92.18-2.1-23.27,35.6-7.19,22.45,8.28-12.75,15.01-53.05,4.24-68.61-2.96-8.93-4.13-30.04-17.24-17.33-27.97,4.28-3.61,22.81-4.89,21.82,2.65Z"/>
      <path class="cls-2" d="M450.28,412.41c27.16-18.84,62.5-19.23,84.97-45.89,5.08-6.02,9.72-13.06,11.74-20.78,2.91-.11,1.88,7.49,1.65,9.16-.67,4.74-2.65,8.02-3.33,12.49,2.68,2.77,10.83-9.82,11.74-12.41,8.88-25.34-12.6-42.08-23.7-61.48-9.55-16.69-20.77-46.08-4.74-61.13.71,24.96,15.12,50.9,33.34,67.53,15.36,14.02,25.57,13.53,36.43-5.28,36.26-62.77,17.15-162.38-28.13-216.41-12.67-15.12-28.98-26.25-43.29-39.21,17.05-2.32,31.95,7.67,44.22,18.28,9.96,8.61,24.04,29.67,33.21,35.13,12.26,7.31,11.39-13.32,10.99-20.99-1.11-21.1-9.95-42.1-24.16-57.51-1.64-1.78-15.94-10.5-5.77-9.26,27.5,3.36,39.88,35.05,47.01,58.03,2.16,6.96,7.33,49.33,21.23,30.51,7.48-10.12,6.8-38.77,4.23-50.97-3.68-17.47-13.45-32.33-29.26-40.76,29.92-5.62,44.97,27.18,48.32,51.71,1.82,13.32-.97,47.93,7.48,55.86,7.87,7.38,15.8-2.24,18.43-9.98,4.97-14.65-.19-31.33-5.88-45.05,12.24,4.74,18.85,20.58,19.79,32.7,3.04,39.27-31.28,58.21-39.7,91.59-.94,3.71-3.79,18.01,1,19.15,16.4,3.92,32.07-23.98,30.57-38.43,3.97-1.19,4.46,2.97,4.82,5.97,5.88,48.98-59.42,61.38-59.71,100.11-.16,21.99,36.04,1.65,40.72-9.38,3.08,15.96-16.21,28.82-29.21,34.14-9.37,3.84-40.36,9.11-39.95,23.4.45,15.74,38.05,3.25,44.96-4.21-9.14,35.12-55.22,29.02-77.58,51.61-25.33,25.6-3.65,48.79,25.93,24.27,10.46-8.67,10.18-13.97,16.23-23.74,4.32-6.98,5.62,4.44,5.32,8.47-1.3,17.56-21.11,34.67-36.94,39.88-25.65,8.44-51.08,1.75-77.13,4.55-28.29,3.04-71.37,17.91-85.12,44.91-2.18,4.28-3.61,14.46-4.18,15-.27.25-6.81,1.95-6.63-2.44.2-4.68,7.89-16.04,6.72-17.47-2.58-3.14-3.59,2.37-4.14,3.29-3.23,5.48-4,11.36-6.89,16.82-8.55-1.5-17.26-3.34-23.97-9.3-.75-3.12,14.93-11.34,12.51-17.45-5.18,4.25-7.54,14.22-15.09,14.94-8.65.82-4.84-3.35-.76-6.63,1.41-.27,1.46-.11,1.67-1.67,1.13-.95,3.35-.81,5.06-2.87,11.28-13.62,6.76-48.88,8.48-66.11,1.18-11.81,5.31-32.03,19.79-32.7-2.43,11.37-3.61,55.78,5.09,62.43,1.35,1.03,10.44,4.95,9.23.72-1.68-5.86.52-1.87,2.36-3.14-5.58,5.18,12.03,1.86,11.66-1.65-1.85-.05-11.23,1.25-11.66,1.65ZM626.98,72.31c-2.82-.04-3.63-.94-3.21,2.36,1.4,11.1,2.05,22.24,3.42,33.29.3,2.44.86,10.1,3.12,11.03.56-15.62-2.13-31.14-3.32-46.68ZM667,104c.47,9.37,2.06,18.95,2.5,28.36,1.42,0,1-25.24.83-28.36-.21-3.87.43-8.51-2.5-11.69-1.42.04-.93,9.68-.83,11.69ZM603.64,104.01c-1.82-1.82-5.13,1.5-3.32,3.32s5.13-1.5,3.32-3.32ZM618.64,139.01c-1.57-10.5-7.29-21.88-14.17-29.97-.19,2.78,1.63,6.33,2.74,8.91,2.88,6.68,7.02,15.31,11.43,21.06ZM645.33,149.84c.98-9.53,0-21.75,0-31.67,0-.29-2.25-2.63-3.33-2.5v37.51c0,2.98-3.91,12.87-4.69,17.02-.62,3.3,2.21,3,3.01,2.16s4.77-20.11,5.02-22.51ZM655.33,150.68c-.39,9.89-1.94,17.05-2.87,26.32-.19,1.9-1.92,6.78,2.02,5.36,2.78-1,2.4-27.11,2.52-31.68.07-2.58,3.51-8.88-.83-13.35-1.55.01-.74,11-.83,13.35ZM621.97,147.34c.45-3.11.01-5.78-3.3-6.67-.45,3.11-.01,5.78,3.3,6.67ZM651.99,190.69c-4.97-.87-2.63,1.32-3.5,3.9-2.48,7.38-5.16,15.08-6.47,22.76,6.38-6.66,8.49-17.91,9.98-26.66ZM631.98,215.68c.56-.75.65-14.66-3.31-14.99,1.21,3.8-3.25,16.2,3.31,14.99ZM683.68,209.01l8.29-4.17c-2-.34-10.06,3.32-8.29,4.17ZM681.99,209.04c-2.34-1.2-4.45,1.05-3.32,1.63,2.34,1.2,4.45-1.05,3.32-1.63ZM676.99,210.71c-6.93-.83-6.93,2.46,0,1.63v-1.63ZM635.3,272.37c6.68-18.7,20.08-36.53,21.68-56.67l-24.97,55.86,3.29.8ZM630.32,243.2c.88-7.57-.64-16.43,0-24.17l-5.02,32.49c3.1,4.3,4.75-5.93,5.02-8.32ZM626.98,254.04c-4.87-.83-2.71,1.14-3.53,3.87-4.36,14.46-9.74,28.33-13.98,42.76,9.33-13.75,14.6-30.34,17.51-46.64ZM658.66,282.39c-7.94-.06-19.72-.55-25,6.63,6.6-1.62,13.4-2.67,20.03-4.14,1.83-.41,5.39-.03,4.96-2.49ZM631.98,289.05c-4.18.23-9.79,5.84-9.98,9.99l9.98-9.99ZM607.82,302.38v1.67c1.08-.56,1.08-1.11,0-1.67ZM557.8,305.71v1.67c1.08-.56,1.08-1.11,0-1.67ZM606.15,305.71v1.67c1.08-.56,1.08-1.11,0-1.67ZM563.13,311.23c-.33-.31-3.83-2.33-4.46-1.36,8.6,12.29,13,22.93,11.64,38.38-.1,1.12-5.86,18.79-.02,12.49,2.44-2.63,3.68-21.19,3.16-25.66-.66-5.72-6.22-20.09-10.32-23.84ZM605.31,309.06c-2.84-2.9-5.85,5.77-4.99,6.65,2.84,2.9,5.85-5.77,4.99-6.65ZM600.31,317.39c-1.82-1.82-5.13,1.5-3.32,3.32s5.13-1.5,3.32-3.32ZM620.31,330.74c-5.55-.46-13.1-3.13-16.66,3.3l16.66-3.3ZM601.15,334.06v1.67c1.08-.56,1.08-1.11,0-1.67ZM582.95,361.7c3.3-3.86,7.67-8.2,9.88-12.61-7.85,7.22-14.35,12.72-19.15,22.49,3.44-1.81,6.51-6.64,9.27-9.88ZM566.97,362.41c-2.84-2.9-5.85,5.77-4.99,6.65,2.84,2.9,5.85-5.77,4.99-6.65ZM545.29,369.08c-2.34-1.2-4.45,1.05-3.32,1.63,2.34,1.2,4.45-1.05,3.32-1.63ZM561.96,370.75c-2.34-1.2-4.45,1.05-3.32,1.63,2.34,1.2,4.45-1.05,3.32-1.63ZM571.96,379.06l.87-4.96c-2.55,1.7-4.14,5.25-.87,4.96ZM629.49,380.73v1.67c1.08-.56,1.08-1.11,0-1.67ZM627.84,384.1l-15.82,12.49c5.55-1.79,13.71-7,15.82-12.49ZM556.14,390.74c-8.28-.75-17.45.55-25.84,0v3.33h36.68v-1.65c-3.95,1.53-8.29-1.45-10.84-1.68ZM431.92,417.41l-3.3-20c1.01,6.04-2.96,16.32,3.3,20ZM609.48,397.41v1.67c1.08-.56,1.08-1.11,0-1.67ZM606.15,399.07v1.67c1.08-.56,1.08-1.11,0-1.67ZM531.13,404.07c14.81,2.07,33.87-1.53,49.18,0l-17.42-3.41c-12.51.15-23.45,2.27-35.92.09-.61,1.68,3.48,3.22,4.16,3.32ZM416.94,437.42c-.48,2.78-2.06,5.37-1.65,8.34,3.86-.61,2.53-4.59,3.32-6.67,5.45-14.45,2.06-21.99,1.66-36.67-2.82.07-3.55-1.13-2.96,2.09,2.22,12.03,1.65,21.12-.36,32.91ZM525.28,404.09c-8.06-3.23-16.27,1.73-24.22,3.25l-10.77,5.05,34.99-8.3ZM481.94,404.09c-5.73.31-14.77,1.7-18.33,6.63,4.59-.19,9.51-2.06,13.75-3.75,1.76-.71,4.97-.47,4.58-2.88ZM460.28,422.43c-6.62.45-12.21,2.98-18.91,4.3-1.56.31-3.96-2.74-2.75,2.34,6.85.23,16.89-.92,21.66-6.64ZM431.93,430.76c-5.23-.89-2.53,1.6-3.31,4.11-1.48,4.81-2.94,10.05-5.21,14.51-.76,1.49-7.96,8.17-6.47,9.71,4.32,1,2.91-1.27,4.29-3.15,5.35-7.25,10.87-15.71,10.7-25.18ZM451.13,437.45l-4.15,4.15.78.78,4.15-4.15-.78-.78ZM444.46,442.45l-2.48,2.48c-.03,1.75,4.17-.99,2.48-2.48ZM440.27,452.41c.18-.18,1.15-4.07.86-4.96-7.56,2.1-3.23,7.35-.86,4.96Z"/>
      <path class="cls-2" d="M318.58,357.39c-3.15-16,12.95-3.91,17.89-17.96,4.27-12.13.15-62.76,2.28-65.24,14.25.54,30.01-13.45,41.4-16.12,7.26-1.7,14.82-.1,22.19-1.15,42.95-6.13,44.03-77.18.25-82.73-4.48-.57-22.89-1.06-26.25.04-1.98.65-2.64,1.97-2.74,3.93l-1.66,54.18c9.04.92,17.1-22.35,18.39-23.28,1.7-1.22,9.99,3.35,10.05,4.24-29.9,80.79-154.12,65.02-175.62-14.66-19.19-71.12,30.11-137.36,104.72-133.06,15.56.9,33.79,9.45,46.67,10.15,6.92.38,9.38-3.86,15.77-3.43l3.34,60.03c-12.26,2.8-11.75-12.11-16.36-21.15-20.92-41.05-75.36-43.2-102.69-7.05-28.25,37.37-24.98,114.59,19,139.09,3.24,1.81,14.74,7.47,17.53,7.47h25.84v-64.18c0-.74-3.13-11.39-3.76-12.09-.94-1.04-5.78-2.82-7.51-3.35-6.74-2.06-8.02,3.18-7.08-8.74l89.17-1.63c58.08.95,87.24,64.4,33.41,98.38-4.12,2.6-11.77,2.49-10.67,8.75,15.51,19.55,31.22,60.32,50.92,74.26,4,2.83,23.46,9.11,15.58,14.5-2.05,1.4-47.57,1.7-49.72.45-13.96-21.01-25.31-44.04-39-65.18-9.79-15.12-15.28-26.25-36.36-22.83v65.85c0,2.29,4.41,8.4,6.72,9.95,7.32,4.9,15.92.13,13.28,12.56h-75.02Z"/>
      <path class="cls-2" d="M575.29,299.04c-2.97-2.7-9.49-5.34-10.07-9.2-.95-6.24,6.19-31.87,6.83-41.57C581.62,101.45,441.95-22.58,297.3,23.54c-93.04,29.66-157.4,129.16-150.41,226.31.62,8.56,7.87,36.4,6.73,41.36-.14.59-8.72,7.58-9.28,7.83-2.82,1.25-2.2-1.09-2.65-2.28-2.92-7.75-5.21-21.96-6.28-30.43-14.26-112.45,55.34-226.38,165.22-257.79,172.69-49.37,325.36,124.52,274.66,290.51Z"/>
      <path class="cls-2" d="M200.22,425.75c3.68-3.54,21.45,14.77,26.14,18.02,8.67,6.01,17.48,8.37,25.03,13.31,6.59,4.32,3.81,7.61-3.24,6.68-10.6-1.41-39.07-22.49-45.51-31.28-1.14-1.55-4-5.21-2.42-6.73Z"/>
      <path class="cls-2" d="M518.62,425.75c.84,5.02-3.58,7.91-6.64,10.85-7.26,6.96-33.61,27.11-42.86,27.16-2.75.02-3.83-2.24-5.5-3.85,10.42-5.95,22.03-10.99,31.53-18.47,7.62-6,12.86-17.47,23.47-15.69Z"/>
      <path class="cls-2" d="M2032.35,164.01c2.99,14.54-18.37,2.62-18.29,17.27l36.61,104.42c6.28-25.01,19.63-49.62,26.75-74.13,3.73-12.85,6.49-28.13-6.88-36.58-4.81-3.04-17.51-3.24-12.93-10.75.76-1.24,18.7-1.93,22.18-2,15.45-.34,30.57,1.28,45.93,1.77-.28,1.63.43,6.16-.02,6.62-1.11,1.14-18.89-1.61-17.97,12.09l35.49,101.28c2.15-1.3,2.16-3.36,2.98-5.32,7.16-17.11,27.26-72.64,29.38-88.97.9-6.94,1.48-12.71-5.33-16.05-6.22-3.05-13.3.11-11.19-9.65h50.85c.35,0,1.91-2.5,2.48-1.67,2.81,12.5-6.34,7.34-13.95,11.87-3.33,1.98-4.86,5.3-6.35,8.66l-49.51,145.2c-1.52,2.17-14.93,2.27-15.58-2.79l-38.79-109.6-39.44,110.62c-2.51,4.63-9.79,2.62-14.55,2.56l-49.9-144.3c-1.25-3.14-2.69-5.77-5.37-7.97-5.57-4.59-17.73-4.22-16.61-12.57h70.02Z"/>
      <path class="cls-2" d="M970.41,327.39c-.22-.23-.26-5.93.19-6.48,2.49-3.05,17.32,2.16,19.66-14.51-1.84-37.41,2.97-77.92.22-114.95-.53-7.21-1.1-15.06-8.39-18.28-6.54-2.89-13.85.57-11.69-9.15,36.09,3.02,116.92-17.06,133.68,27.19,11.54,30.46-12.46,49.93-39.47,56.2-1.98.46-3.03-1.26-2.5,2.43,14.34,16.48,25.5,37.28,39.95,53.42,2.66,2.97,10.68,11.58,13.52,13.16,5.25,2.92,12.97,1.87,14.6,2.89,1.96,1.23,2.59,9.75-.57,9.75h-40.01c-3.31,0-15.2-16.42-18.16-20.18-13.05-16.57-24.05-34.77-36.73-51.62-4.23-3.04-10.89-1.07-15.95-1.55v54.18c0,10.3,22.38,9.91,23.32,10.88.46.48-.25,4.99.02,6.62-8.84-1.98-69.21,2.6-71.69,0ZM1018.76,242.37h25.84c2.29,0,13.82-5.25,16.39-6.95,21.68-14.28,18.87-55.81-8.8-60.66-4.9-.86-33.43-2.58-33.43,3.42v64.18Z"/>
      <path class="cls-2" d="M1872.01,159.46c124.98-4.42,113.73,191.53-11.78,170.84-99.34-16.38-88.8-167.28,11.78-170.84ZM1870.31,171.1c-50.98,3.95-54.27,75.5-41.82,112.58,10.15,30.25,41.07,45.48,70.55,31.27,43.84-21.15,43.93-149.48-28.73-143.85Z"/>
      <path class="cls-2" d="M945.4,162.34l5,60.01c-2.26-.34-6.48.81-8.1-.22-.94-.6-6.57-16.94-8.55-20.63-8.09-15.05-16.24-23.74-33.35-28.34-61.31-16.47-78.61,60.85-61.99,105.33,15.9,42.55,65.47,47.95,95.98,17.03,5.76-5.83,10.17-19.55,19.32-14.78-23.16,75.04-134.12,62.61-150.58-11.98-14.91-67.56,37-124.17,105.63-105.63,5.87,1.59,15.85,7.71,20.84,7.68,7.31-.04,8.26-9.6,15.8-8.49Z"/>
      <path class="cls-2" d="M1315.5,327.39c-2.72-10.58,9.14-5.79,15.41-11.63,25.88-48.22,42.33-101.59,62.75-152.43l16.67-.79,53.78,140.43c2.98,8.09,7.89,12.58,15.53,16.16,5.56,2.61,9.03-1,7.57,8.25h-66.68c-3.4-11.37,10.22-3.48,14.17-11.67,4.1-8.48-8.63-30.47-11.11-39.73l-58.79-1.73c-2.3.59-14.59,33.07-14,36.93,2.1,13.8,22.81,2.55,19.71,16.2h-55.01ZM1368.85,264.04h50.01l-24.19-65.03-25.82,65.03Z"/>
      <path class="cls-2" d="M1325.5,164.01l3.33,45c-2.04-.33-9.51.53-10,.02-1.09-1.14,0-20.94-10.07-29.11-8.59-6.98-44.51-7.54-55.66-5.79-5.29.83-9.28,5.3-9.28,10.72v50.01c0,.18,2.32,2.5,2.5,2.5h35.01c12.5,0,9.85-21.22,14.84-25.17,11.87-9.38,6.11,9.22,5.93,14.26-.56,15.81.55,31.78.07,47.59-13.46,3.23-8.08-10.36-13.56-18.96-1.1-1.73-5.81-6.05-7.28-6.05h-35.84v60.85c0,6.94,17.56,11.06,23.35,9.16v8.34h-69.19c-.51,0-2.35,2.3-4.16,1.66-3.39-13.44,9.78-7.56,16.79-14.03,3.08-2.84,4.18-7.9,4.67-12,3.75-30.87-.63-65.62-1.61-96.5-.28-8.66,4.57-18.73-1.43-28.44-5.64-9.12-21.27-1.8-18.43-14.07h130.03Z"/>
      <path class="cls-2" d="M1744.78,315.72c5.14-.85,12.63-6.66,15.83-10.84,3.09-4.03,11.19-23.92,12.52-24.19,1.98-.4,3.78-.15,5.02,1.66,4.79,7-7.18,35.42-5.88,45.03l-122.6.1c-4.34.81-9.04-4.75-3.67-7.17,10.19-4.58,15.73,1.04,17.73-15.62,3.2-26.74,2.57-87.44.26-114.91-.8-9.51-1.94-14.33-11.32-17.02-7.32-2.1-11.81,2.21-10.43-10.42l71.77.75c6.76,12.61-8.97,7.29-15.96,12.54-2.36,1.78-5.8,8.32-5.8,10.87v126.7c0,.18,2.32,2.5,2.5,2.5,13.9,0,37.57,2.07,50.01,0Z"/>
      <path class="cls-2" d="M1568.9,164.01c.62.63.24,6.24-1.63,7.63-1.03.76-12.16-1.5-17.86,4.54-.57.61-3.85,6.59-3.85,6.99v130.03c0,1.25,4.05,3.77,5.88,4.12,8.81,1.69,47.96-.23,55.34-4.45.49-.28,7.91-7.28,8.24-7.74,2.75-3.77,10.65-29.21,17.21-22.79,2.61,2.56-7.33,38.56-6.66,45.02h-126.7c-2.83-10.6,8.59-5.2,14.96-10.88,2.47-2.2,4.46-8.47,4.9-11.77,3.39-25.22,2.25-86.79.2-113.28-.24-3.14-1.76-12.64-3.24-14.71-3.5-4.89-22.59-1.88-18.49-12.74,8.83,1.95,69.17-2.56,71.69,0Z"/>
      <path class="cls-1" d="M1018.76,242.37v-64.18c0-6,28.53-4.28,33.43-3.42,27.67,4.84,30.48,46.38,8.8,60.66-2.57,1.69-14.1,6.95-16.39,6.95h-25.84Z"/>
      <path class="cls-1" d="M1870.31,171.1c72.66-5.63,72.57,122.7,28.73,143.85-29.48,14.22-60.4-1.01-70.55-31.27-12.45-37.08-9.16-108.63,41.82-112.58Z"/>
      <polygon class="cls-1" points="1368.85 264.04 1394.67 199.01 1418.86 264.04 1368.85 264.04"/>
    </g>
  </g>
</svg>