<?xml version="1.0" encoding="UTF-8"?>
<svg id="Layer_2" data-name="Layer 2" xmlns="http://www.w3.org/2000/svg" viewBox="0 0 3528.06 866.06">
  <defs>
    <style>
      .cls-1 {
        fill: #faf9f2;
      }

      .cls-2 {
        fill: #bd611f;
      }
    </style>
  </defs>
  <g id="Layer_1-2" data-name="Layer 1">
    <g>
      <path class="cls-2" d="M1204.06,179.9h2276v538l-2383.09.09c-4.36.98-9.27-1.99-12.91-2.09,4.49-9.35,15.41-17.15,21.65-25.26,18.64-24.21,31.85-58.43,28.13-89.52-2.63-21.97-15.1-25.89-34.77-25.2-3.13.11-11.06,4.25-10.99.01,7.34-2.14,8.41-19.54,12.03-26.46,2.81-5.37,18.86-19.96,24.65-24.84,2.07-1.74,6.13-1.32,9.21-3.9,11.65-9.74,26.23-25.23,24.01-41.66-1.2-8.84-11.37-14.7-9.93-21.79.13-.64,7.62-8.18,8.56-9.93,8.79-16.27,8.92-27.71,13.99-43.91,5.23-16.7,14.07-18.93,21.44-30.98,7.73-12.65,15.15-31.8,5.71-45.26-.9-5.84-17.03-7.81-15.51-12.09,5.7-16.01,30.65-26.55,38.19-47.84,13.64-38.54-11.29-64.56-42.36-33.38,1.94-7.91,21.33-53.04,25.98-54ZM1503.77,314.19c-16.72-8.22-13.28,3.71-18.51,7.9-7.77,6.22-29.43-6.63-39.19-9.2-117.98-31.13-182.98,91.97-144.06,192.06,32.81,84.37,149.14,101.06,199.69,23.6,2.34-3.59,12.39-22.62,12.54-25.66.19-3.75-10.32-7.54-12.92-7.15-2,.3-16.77,26.92-23.2,33.24-32.03,31.44-90.83,31.53-116.94-7.2-31.57-46.83-32.1-164.77,28.17-189.58,45.92-18.9,84.96,14.45,98.77,56.65,5.1,15.6-1.85,21.86,19.95,19.07l-4.29-93.72ZM2779.61,308.45c-80.63,8.71-119.12,101.36-98.11,173.01,10.43,35.57,58,90.77,96.08,95.92,176.14,23.83,186-288.81,2.03-268.93ZM2030.06,573.9h79c3.84,0,3.57-11.42.56-13.58-4.13-2.96-19.93-1.13-25.35-9.61-8.23-12.87,11.57-46.82,13.56-61.65,27.47-2.08,56.4-1.62,84.32-.24,2.45,1.64,18.27,50.75,18.04,56.06-.79,17.88-19.77,11.96-23.24,16.89-1.73,2.46-1.64,9.41,1,11.25,3.82,2.67,83.97,2.11,93.21.97,3.03-.37,5.5.08,6.62-3.37,4.35-13.41-2.72-9.45-9.34-12.07-10.59-4.2-16.76-10.66-20.73-21.3l-81.42-226.16c-2.03-2.88-24.8.04-27.14,4.89l-82.12,223.88c-2.54,4.89-6.52,11.83-11.04,14.96-10.93,7.57-19.17-.85-15.92,19.08ZM1604.06,538.9c-3.87-23.29,2.88-56.58,0-81,7.98-.53,16.56.84,22.92,6.08,24.43,36.74,45.31,76.29,74.08,109.92h63c3.22-19.17-5.14-12.73-17.8-19.2-5.69-2.91-10.94-8.09-15.22-12.78-23.11-25.32-40.69-64.22-62.96-91.05-.72-3.92.61-2.44,2.5-3.4,8.22-4.17,18.01-5.87,26.87-11.18,40.36-24.18,44.46-87.29,2.68-111.45-39.21-22.68-103.88-9.58-149.16-10.84-5.84-.16-18.55-5.13-20.61,1.2-4.89,15.06,6.83,10.16,15.74,13.68s11.56,13.75,13.79,22.21c-2.93,57.23,4.49,119.26.26,175.91-.78,10.39-2.39,24.36-12.67,29.33-11.39,5.51-20.61-2.11-17.43,15.59,16.34-3.72,97.37,7.28,106.14,1.12,2.46-1.73,2.51-12.46,1.85-13.11-1.63-1.59-20.77,1.55-28.9-10.1-1.2-1.72-4.8-9.27-5.08-10.92ZM2046.06,313.9h-183c-.83,0-3.79-3.95-6.08-.09-5.31,17.24,4.8,10.98,15.11,15.06,8.42,3.33,10.71,11.68,11.97,20.03-4.02,60.03,5.32,126.88.08,186.09-.81,9.19-2.96,18.05-12.08,21.91-4.1,1.74-13.73,2.12-15.56,3.42-2.96,2.11-4.3,14.02,2.37,13.48l105.91-.19c14.15-19.94-20.31-11.35-29.68-23.74-.89-1.18-5.04-10.36-5.04-10.96v-89h47c4.5,0,13.7,9.7,15.79,14.21,6.59,14.23-1.96,27.92,19.21,23.79v-98c-2.91.55-12.86-.9-13.9.11-2.07,1.99-1.45,39.89-21.1,39.89h-47v-95c0-.21,2.79-3,3-3h66c2.27,0,16.3,6.93,18.88,9.12,12.01,10.22,14.74,31.98,16.12,46.89.76.78,15.09-1.41,15.79-2.22,3.81-4.47-5.67-61.49-3.78-71.79ZM2486.06,573.9h188c-1.23-10.27,12.18-71.01,6.71-74.09-16.45-9.27-15.61,8.59-19.74,18.07-11.05,25.37-19.28,33.59-48.01,35.99-6.61.55-43.83.92-46.99-.95-1.56-.92-2.37-3.24-3.08-4.92l-.72-200.93c1.31-5.23,2.47-11.68,7.06-14.94,5.6-3.98,23.23-4.52,24.48-6.51,1.06-1.69.64-10.04-.6-11.86-3.1-4.58-89.81-.29-102.2-2-4.69-.99-6.09,11.9-4.7,13.91,1.09,1.58,15.68,2.53,20.82,6.18,3.87,2.75,8.1,10.49,8.83,15.17-3.26,59.76,4.78,124.82.2,183.94-.91,11.71-1.65,22-14.04,25.96s-18.47-3.13-16.03,16.97ZM3262.06,311.9h-80c-2.15,18.93,1.76,12.27,13.4,17.6,7.75,3.55,14.31,7.67,12.66,17.31l-45.06,153.11c-18.02-50.94-33.16-103.41-48.86-155.3-5.82-17.06,23.38-16.23,25.65-18.92,1.49-1.76.21-13.8-2.79-13.8h-99c-2.75,19.75,3.56,12.12,14.74,18.26,28.57,15.71,16.46,45.44,9.79,69.26-9.48,33.84-22.65,66.76-32.55,100.46l-47.85-153.19c-2.78-24.52,20.32-15.9,23.61-21.06s.76-12.93-6.63-13.83c-9.21-1.12-87.5-1.67-91.22.97-2.29,1.62-2.88,10.89-1.61,12.87,1.4,2.17,19.28,1.48,26.75,16.25l72.75,232.86c1.37,2.04,22.11,2.85,24.08-1.99l55.13-166.86,53.35,166.69c1.73,5.31,22.53,4.08,23.9,2.14l68.82-224.76c3.82-9.5,7.65-16.39,17.49-20.51,11.18-4.67,15.47,1.88,13.46-17.54ZM2390.06,313.9h-106c-2.33,16.9,3.02,10.3,14.48,14.52s13.5,11.78,15.29,22.7c-2.87,57.86,4.57,120.58.31,177.86-1.04,13.98-1.79,23.55-15.65,28.33-11.74,4.05-16.69-1.93-14.45,14.59,62.09-.4,124.14-.09,186.02,2l8-74.02c-4.47.4-12.04-1.63-15.04,1.97s-7,22.99-11.36,30.64c-8.37,14.71-19.95,19.76-36.63,21.37-9.95.96-41.11,1.66-49.99.02-4.86-.9-6.06-4.65-6.86-9.14v-197.74c3.47-22.52,29.55-18.09,31.59-21.4,1.37-2.22-.29-8.59.27-11.73Z"/>
      <path class="cls-2" d="M1202.06,163.9c.09-4.06-.97-27.72,1.15-28.03l2324.85.03v623c0,.21-2.79,3-3,3H943.06c-.79,0-8.33-1.79-6.98-4.97.36-.85,10.42-14.42,11.3-14.71,8.95-2.95,39.92,2.76,53.65,1.65,16.41-1.33,37.89-7.62,53.03-13.97l2442,2V163.9H1202.06Z"/>
      <path class="cls-1" d="M1202.06,163.9h2294v568l-2442-2c8.15-3.41,23.99-14.17,30-14,3.63.1,8.55,3.08,12.91,2.09l2383.09-.09V179.9H1204.06c-6.89,2.02-2.15-9.32-2-16Z"/>
      <path class="cls-1" d="M236.06,663.9c-3.92.05-5.56-2.69-8.03-4.96-23.61-21.7-42.77-40.64-59.58-68.43-15.17-25.08-21.58-50.49-46.56-69.44-5.86-4.44-50.98-25.28-41.82-35.16,9.03,1.05,18.72,6.78,17.88-6.82-.9-14.44-20.72-31.48-28.27-43.8-10.1-16.48-11.12-34.12-18.81-49.19-6.63-12.98-23.8-23.04-26.67-39.34s12.82,3.32,18.38,5.61c27.37,11.31,9.14-33.75,2.36-44.34C30.48,285.44-1.36,273.71.05,242.91c6.35-4.02,9.16,5.83,13.96,10.04,26.57,23.25,47,17.61,36.61-20.61-7.52-27.64-30.3-49.01-30.71-81.41-.11-8.77,1.9-28.9,12.14-31.02-1.69,14.87,12.46,62.9,29.15,63.96,23.35,1.49,8.66-50.29,8.69-62.97.04-16.39,7.61-42.19,15.42-56.75,3.13-5.83,15.41-24.49,19.72-28.28,19.13-16.77,6.17,12.62,3.61,19.54-1.32,3.57-1.46,1.18-3.51,8.48-3.55,12.64-6.65,23.33-4.91,36.84,2.19,16.94,16.52,34.1,31.87,17.65,10.18-10.91,18.07-34.47,29.13-48.31,5.8-7.25,37.29-40.29,46.82-32.16-4.84,12.52-15.02,21.89-21.6,33.38-12.51,21.85-29.35,71.58,14.14,64.12,28.72-4.92,66.31-36.16,100.41-23.45,20.41,7.61-14.81,17.43-22.28,21.6-166.55,93.18-132.04,392.49-.69,505.36,60.28,51.79,145.72,55.61,203.88,102.12,7.92,6.33,8.65,24.2,11.19,34.88.62,2.62,2.05,12.05,2.95,13.98l-2,2c-12.01-14.81-32.78-29.93-48.96-40.04-7.62-4.76-51.69-29.86-57.04-25.94-.19,1.29,1.04,2.24,1.99,2.98,8,6.24,32.96,15.28,45.05,22.95,10.17,6.45,25.54,15.08,29.98,26-19.26-15.15-43.7-27.45-66.3-37.68-16.5-7.47-35.87-15.75-53.19-20.81-67.77-19.8-126.11,15.1-187.53-35.47-5.17-4.26-12.17-12.82-17.02-17.96,1.5,9.1,9.08,14.25,15.02,19.96,50.15,48.22,88.5,27.15,146.74,32.26,46.34,4.07,113.49,31.41,150.25,59.75,19.66,15.15,41.02,38.84,44.98,64-8.47-10.05-13.45-22.85-22.02-32.96-31.09-36.66-100.66-67.21-147.1-76.9-45.72-9.54-90.98,3.24-135.41-12.59-37.81-13.48-68.61-47.95-76.55-87.45-1.29-6.43-3.99-30.24,1.13-34.09,5.39-4.06,11.48,22.49,13.01,25.96,13.61,30.77,40.72,54.07,73.41,62.59,19.83,5.17,58.56,11.01,46-22-1.66-4.37-28.88-40.05-33.41-44.59s-9.59-6.04-13.12-9.45c-4.67-4.5-10.42-18.98-11.95-20.51-1.19-1.18-4.72-.82-4.02,3.02.43,2.34,6.62,12.55,8.43,15.59,12.02,20.21,28.38,33.12,39.62,53.38v2ZM167.06,73.9v2c1.3-.67,1.3-1.33,0-2ZM152.03,113.88l13.04-35.95c-7.06,7.27-12.45,19.69-14.56,29.44-.44,2.02-2.03,7.02,1.51,6.51ZM80.06,113.9c-1.35,24.13,5.26,47.92.02,72,2.56-.47,4.38-3.65,5.07-5.91,5.21-17.29-1.29-46.47-1.09-66.09.09-8.42,1.43-15.75,1.98-24-5.7,4.2-5.6,17.23-5.98,24ZM170.67,143.27c-4.46-4.04-8.16-15.27-8.64-21.36-3.32-.55-2.2,4.9-2.05,7.04,1.88,26.81,25.78,26.47,46.06,18.92l-24.85-.11c-2.78-.4-8.48-2.65-10.51-4.49ZM266.04,129.91c-1.32-1.22-13.85,2.07-9.98,5.98.5.5,14.09-2.16,9.98-5.98ZM172.06,223.9c-3.59,4.4-7.5,6.04-5.98,13.99,4.87-1.72,4.79-10.51,5.98-13.99,13.4-16.41,24.17-35.33,38.7-51.3l43.29-36.69c-11.77,3.31-23.61,12.21-32.93,20.05-20.26,17.05-40.63,43.22-49.06,67.94ZM118.06,178.9c-1.22,11.7.89,25.1,0,37l6.09-46.94-2.07-5.04c-.07,4.58-3.63,11.17-4.03,14.98ZM38.06,183.9c1.04,2.87.72,6.5,2.52,10.46,9.52,20.97,25.97,37.49,21.5,63.54,3.65-.76,3.7-3.93,4.04-6.92,2.98-25.5-14.62-46.42-26.06-67.08-1.53-2.76-1.06-8.96-5.98-10-2.64,5.77,3.7,9.22,3.98,10ZM154.07,181.9c.76.97,5.29-3.49,3.96-6-.76-.97-5.29,3.49-3.96,6ZM146.06,199.9c-10.47,27.37-12.18,47.09-14,76-.12,1.9-4.09,7.78-1.99,11.99,6.82,1.73,3.33-7.03,3.99-11.99,2.78-21,8.09-56.67,14-76,.55-1.8,9.01-9.44,5.98-16-5.14,2.96-6.04,10.94-7.98,16ZM79.06,187.9v2c1.3-.67,1.3-1.33,0-2ZM98.06,231.9c.86,7.99,2.53,16.1,4,24s2.56,16.26,5.02,24.01c5,.8,2.85-3.58,2.45-6.47-.88-6.27-4.9-13.96-5.47-17.55-1.09-6.9-.93-15.99-2-24-.8-5.96-1.94-11.96-2.02-18-6.65,2.65-2.62,12.06-1.98,18ZM172.03,257.89c1.44-2.81-1.27-5.34-1.96-3.98-1.44,2.81,1.27,5.34,1.96,3.98ZM164.06,269.9c-15.05,36.06-18.51,79.53-14,118,.27,2.32-1,10.02,1,10.02,2.24-2.13.57-7.04,1-10.02.3-2.08,1.87-4.18,2.11-8.83,2.1-39.82,1.79-69.6,11.89-109.17.36-1.42,6.01-5.57,3.98-10-4.71,1.22-4.55,6.58-5.98,10ZM21.06,271.9v2c1.3-.67,1.3-1.33,0-2ZM60.04,307.89c-2.52-16.06-22.4-27.06-35.95-33.01l35.95,33.01ZM96.04,319.9c-2.89-14.83-11.68-28.4-21-39.96,6.51,13.32,11.02,28.81,21,39.96ZM107.06,311.9v2c1.3-.67,1.3-1.33,0-2ZM112.06,335.9c6.35,28.54,11.42,57.54,18,86,1.05,4.54,1.81,13.51,5.98,15.99.73-6.16-1.12-12.02-1.98-17.99-4.08-28.22-10.35-56.54-18-84-1.7-6.11-1.78-16.27-7.98-20-.17,6.94,2.51,13.39,3.98,20ZM82.05,345.89c.62-2.76-1.08-5.32-3.97-5.99v5.99s3.97,0,3.97,0ZM84.06,349.9c5.16,15.18,12.09,31.59,19.1,45.99,1.4,2.88-.43,5.01,4.89,4-3.57-16.73-12.14-37.64-23.99-49.99.45-.45-.31-2.05-1-2-2.18.15.06,2.94,1,2ZM140.06,381.9c.09,2.08-.87,8.02,1,8.02,2.02-1.25.89-5.67,1-8.02s.72-12.02-1-12.02c-1.8,2.94-1.16,8.49-1,12.02ZM55.06,373.9v2c1.3-.67,1.3-1.33,0-2ZM58.06,379.9c6.11,19.04,13.36,42.06,28,56,.63,1.42,3.04,11.62,6.03,8.98.67-5.11-5.14-9.12-6.03-10.98-8.41-17.61-15.19-39.81-28-54,.45-.45-.31-2.05-1-2-2.18.15.06,2.94,1,2ZM156.06,487.9c.73,2.51,3.91,14.05,5,14.02,3.38-4.26-.29-10.24-1-14.02-1.69-9.04-5.77-19.49-7.21-27.43-1.52-8.41-6.52-65.31-9.81-66.59-4.34-1.68-3.18,4.58-2.96,6.97,2.85,30.5,7.42,57.59,15.98,87.04ZM114.04,415.9c-.23-4.57-1.18-12.02-5.96-14-.33,5.13.66,11.78,5.96,14ZM108.06,447.9c.6,1.28.29,4.65,1.55,7.35,2.63,5.63,5.83,11.03,8.45,16.65,2.35,5.06,3.51,11.41,7,16.02,4.81-6.33-4.11-13.63-5-16.02-3.79-10.11-2.98-13.12-10-24-2.75-4.26-4.28-8.83-9.02-11.96-.76,4.16,6.03,9.86,7.02,11.96ZM150.06,485.9c3.05,24.27,7.61,48.66,15.01,71.99,1.66,5.22,13.53,37.22,16.01,38.02,4.44,1.43,2.68-2.17,2.16-4.17-12.12-34.65-21.49-70.47-31.18-105.84-.61-2.23-1.69-10.04-3-10.02-3.81,2.64.81,8.54,1,10.02ZM178.04,501.9c-.16-5.2-1.17-14.83-5.96-17.99.49,5.49.36,14.98,5.96,17.99ZM114.05,499.92h-7.98v1.96h7.98v-1.96ZM138.06,515.9c-.25-.37.51-2.12-.45-3.49-2.09-2.99-16.73-11.23-21.55-10.49,5.8,6.62,14.78,9.45,22,13.98.7,1.06,6.07,13.91,9.99,9.99s-8.82-9.25-9.99-9.99ZM208.06,581.9c2.58,4.05,4.88,12.57,10.98,14.02.68-4.2-5-15.43-8.98-14.02l-31.98-78c3.78,27.37,15.2,54.77,29.98,78ZM152.04,527.91c-2.18-2.18-6.16,1.8-3.98,3.98s6.16-1.8,3.98-3.98ZM153.06,533.9v2c1.3-.67,1.3-1.33,0-2ZM155.06,537.9v2c1.3-.67,1.3-1.33,0-2ZM186.06,585.9l1,1.96,1-1.96c.57-2.76-1.07-5.33-3.98-6,0,2.64-.97,5.98,1.98,6ZM188.04,603.89c.66-2.93-.84-4.18-3-5.95-.86,1.99,2.07,7.89,3,5.95ZM192.04,605.89c-4.07-4.35-5.79,4.95,1.03,7.97-.17-1.72-.76-7.68-1.03-7.97ZM256.02,649.91c-9.88-8.68,2.17,11.8,2.46,12.56,1.88,4.85.86,12.97,5.55,15.42,2.09-6.09-3.95-24.4-8.02-27.97ZM334.05,687.88l-43.99-25.97,9.23,9.67c10.71,6.37,21.79,16.05,34.76,16.3ZM337.06,687.9v2c1.3-.67,1.3-1.33,0-2ZM348.05,693.88c-1.07-3.98-4.26-4.49-7.99-3.97v3.98s7.99,0,7.99,0ZM322.04,699.92c-14.69-3.47-29.96-1.62-44.97-2l-45.01,7.96c16.85,2.8,33.26-2.9,49.02-3.95,11.24-.75,22.71.41,33.99-.03,2.43-.09,7.44,1.51,6.97-1.98ZM230.05,701.92h-9.98v1.96h9.98v-1.96ZM482.05,753.88c-12.34-8.54-26.69-18.17-39.96-25.02-4.11-2.12-25.67-12.83-28.03-10.95-3.8,3.03,2.78,4.29,3.94,4.96,8.93,5.2,19.99,9.64,29.4,14.68,11.2,6.01,21.59,17.33,34.66,16.32ZM384.06,723.9c-1.86-3.27-9.56-3.53-8.01.98.32,1.68,6.32,1.36,8.01,1.02.74-.15,1.87.2,1.96-1l-1.96-1Z"/>
      <path class="cls-1" d="M742.06,793.9c5.86-13.78,5.86-35.9,10.44-48.56,2.75-7.61,52.63-34.43,62.85-39.15,82.01-37.95,139.27-45.08,187.76-132.24,60.88-109.45,59-349.83-53.22-426.87-9.3-6.39-43.79-21.86-47.82-26.18-9.95-10.66,17.6-11.24,24.74-10.73,31.67,2.27,60.71,25.07,86.83,27.33,35.86,3.1,16.35-50.93,6.03-68.2-4.87-8.15-19.08-21.92-21.58-28.43-1.15-2.99.49-3.17,3.01-3.03,10.48.59,32.96,19.89,39.99,28.04,11.53,13.35,28.92,55.96,42.48,59.55,24.05,6.37,23.85-33.47,21.99-48.02s-12.04-29.08-13.48-40.55c-1.06-8.43,12.8,4.83,14.84,7.19,33.59,38.77,21.84,72.28,23.09,116.73.75,26.52,16.48,31.74,30.9,8.95,9.83-15.55,12.09-31.82,13.19-49.83,12.71,9.65,11.4,32.21,9.46,46.48-3.36,24.82-42.65,74.64-28.4,95.43,7.35,10.72,23.97,2.22,31.62-4.21,3.07-2.59,16.44-23.19,19.19-12.5.57,2.23-1.98,9.94-2.96,12.75-8.27,23.63-35.72,36.59-47.71,60.29-6.74,13.33-13.8,43.87,10.55,32.55,4.14-1.92,16.71-15.89,16.27-7.77-1,18.73-17.83,27.36-25.15,40.89-6.24,11.52-6.33,25.65-10.47,37.53-2.46,7.06-8,11.86-10.26,16.16-6.64,12.59-13.23,25.47-19.35,38.35-.64,14.32,11.48,9.76,21.19,8.09-4.03,18.34-19.48,21.5-31.83,31.15-28.29,22.12-38.03,64.18-58.54,93.46-15.35,21.9-32.72,32.49-49.01,49.97-2.66,2.86-3.19,10.13-8.6,11.4-4.84-6.45,23.46-35.04,27.92-41.06,39.84-53.63,42-89.91,48.08-153.92,2.58-27.16,9.38-63.42,5.98-90.06-.37-2.92-1.52-6.19-3.99-2.95-1.63,22.88-1.96,46.13-4.03,68.97-3.83,42.28-11.31,127.68-40.21,159.79-8.7,9.67-21.84,19.63-30.61,31.39-52.72,70.72,45.19,47.58,78.86,18.86,24.58-20.98,21.78-38.11,35.53-62.45,4.66-8.26,6.22,4.03,6.54,8.33,3.53,48.64-36.48,98.35-82.1,112.09-38.68,11.65-67.42,2.44-104.66,7.34-60.47,7.95-145.67,44.85-174.89,99.06-2.05,3.81-4.19,7.01-6.44,10.61h-2c6.09-30.1,32.61-54.62,57-72,31.38-22.37,93.87-44.36,132.26-47.74,29.24-2.58,53.79,5.11,84.44-1.56,12.38-2.69,53.48-20.36,58.29-31.72,1.01-2.38-.6-3.98-2.96-2.96-3,1.3-12.24,9.99-17.19,12.82-53.09,30.43-77.56,12.43-130.81,17.19-35.05,3.13-82.33,23.76-113.07,40.93-12.15,6.78-23.89,14.59-34.98,23,10.68-18.24,35.98-32.48,55.02-41.96,5.44-2.71,12.49-4.33,18.01-7.02-1.48-8.76-16.33,4.27-18.01,5.02-5.51,2.44-11.48,3.39-18.04,6.96-27.43,14.94-49.86,35.37-71.96,57.04ZM1039.04,73.94c-.71,2.44,2.39,6.29,4.04,7.92.71-2.44-2.39-6.29-4.04-7.92ZM1122.06,105.9c2.25,15.45-2,20.2-2,31v42c0,2.8,6.26,8.75,8,11,.56.72,2.39,9.61,5.99,5.99,3.63-3.65-5.71-5.6-5.99-5.99-8.26-11.3-.33-66.12-2-84-.35-3.7-4.57-23.25-7.02-24.01-4.5-1.4-2.64,2.13-2.14,4.15,1.71,6.9,4.05,12.26,5.16,19.86ZM1045.06,83.9v2c1.3-.67,1.3-1.33,0-2ZM1047.06,87.9v2c1.3-.67,1.3-1.33,0-2ZM1049.06,91.9v2c1.3-.67,1.3-1.33,0-2ZM1056.03,111.89c.4-5.68.1-13.21-5.96-15.99.51,4.45,1.66,13.66,5.96,15.99ZM956.06,139.9c32.55,20.49,53.65,50.42,76,80,1.75,4.85,1.44,13.16,7.98,16,.93-7.57-4.47-11.35-7.98-16-14.18-39.34-40.48-62.84-76-82-3.49-1.89-6.73-5.87-12.66-8.35-4.25-1.77-8.57-3.87-13.34-3.63,6.72,6.52,18.17,9.05,26,13.98ZM1044.06,129.9c-.08,1.29-.7,4.06,1,4.02,2.02.01.53-2.64,1-4.02.11-.32,4.13-2.72.98-4.01l-2.97.02c-.08,1.32.07,2.66-.01,3.99ZM1044.04,135.91l-15.41,11.57-28.57.4c14.57,6.01,43.14,10.29,43.98-11.97ZM1090.03,209.89c.11-14.15-.76-30.8-4.6-44.39-.58-2.07-.46-6.06-3.36-5.59.82,13.71,2.05,29.31,4.16,42.81.32,2.07.8,7.47,3.8,7.17ZM1168.06,179.9c-11.6,23.39-31.97,45.72-25,74.02-.52-22.57,12.72-38.12,21.35-56.67,2.77-5.94,3.65-11.86,5.65-17.35.76-2.08,5.82-5.24,3.98-10-6.09,1.25-4.79,7.59-5.98,10ZM1052.03,179.89c1.44-2.81-1.27-5.34-1.96-3.98-1.44,2.81,1.27,5.34,1.96,3.98ZM1060.06,201.9c6.53,22.34,8.59,52.48,12,76,.66,4.56,2.08,9.49,3,14.02,1.76,0,1.04-11.43,1-14.02-.35-25.95-5.29-51.63-14-76-2.35-6.58-3.27-16.03-9.98-20,.09,5.22,2.25,10.3,3.87,15.2,1.07,3.23,4.02,4.5,4.11,4.8ZM1102.03,273.88c4.42-19.61,8.01-39.74,8.01-59.97-3.14-.31-2.72,5.26-3.29,7.66-2.62,10.87-5.32,26.49-6.43,37.58-.32,3.19-2.15,13.41,1.72,14.73ZM1035.06,253.9v2c1.3-.67,1.3-1.33,0-2ZM1042.06,277.9c9.26,33.16,12.72,65.73,14,100,.12,3.32-.1,6.68.01,9.99l2.97.02c1.96-.37.92-7.51,1.02-10.01,1.27-33-3.08-68.78-14-100-2.25-6.43-4.09-16.19-9.98-20-.11,7.14,4.16,13.48,5.98,20ZM1172.06,281.9c-8.48,4.19-15.06,7.79-21.14,15.91-3.03,4.04-1.9,6.07-2.86,8.09-.52,1.08-6.02,3.06-3.98,8,3.75-.72,3.9-4.82,3.98-8l24-24c2.82-1.39,5.92-2.38,7.96-5.02l-5.9,2.13-2.06,2.89ZM1112.08,319.9c8.91-10.58,15.16-24.68,19-37.96-9.65,9.54-16.76,24.63-19,37.96ZM1096.06,323.9c-8.31,24.86-12.85,51-15.97,77.02-.74,6.15.65,12.88-.03,18.98-.56,5.08-5.84,13.36-3.98,20,5.93-3.45,4.89-14.06,5.98-20,5.83-31.84,10.95-64.02,16-96l3.98-12c-4.69,1.45-4.59,7.84-5.98,12ZM1133.06,333.9v2c1.3-.67,1.3-1.33,0-2ZM1131.07,337.94l-2.98,2.98c-.04,2.1,5-1.19,2.98-2.98ZM1122.06,349.9c-12.08,18.41-13.82,30.34-20,50-.61,1.95-8.23,9.94-5.98,16,6.09-2.65,5.9-10.98,7.98-16,6.82-16.46,13.06-33.94,20-50,.27-.62,6.48-3.08,3.99-5.99-3.3-3.85-5.02,4.51-5.99,5.99ZM1150.06,377.9c.59-1.24,8.73-5.99,5-10.02-2.85,3.13-4.81,6.37-7,10.02-10.93,18.25-18.53,40.3-26,60-5.7,1.87-5.63,2.09-5.98,10,4.66-1.27,4.65-6.49,5.98-10,5.77-1.89,6.17-5.24,9.43-11.58,7.89-15.35,11.2-32.96,18.57-48.42ZM1109.06,437.9v2c1.3-.67,1.3-1.33,0-2ZM1104.06,445.9c-6.1,9.38-11.46,20.71-11.98,32,7.68-7.55,11.07-21.64,13.98-32,.2-.73,5.25-5.37-.98-4.01-2.23.48-.41,3.07-1.02,4.01ZM1088.08,489.9c4.55-1.2,4.16-6.27,3.96-10-4.55,1.2-4.16,6.27-3.96,10ZM1040.06,505.9c-7.91,28.43-19.48,55.38-28,82-.12.39-6.43,3.14-3.99,5.99,3.28,3.82,5-4.46,5.99-5.99,18.92-29.28,21.54-49.03,28-82,.67-3.4,7.44-10.68,3-16.02-1.7-.05-4.22,13.22-5,16.02ZM1116.05,497.92c-2.37-1.16-16.38,2-11.98,5.97.58.52,11.98-3.07,11.98-5.97ZM1094.06,509.9c.52-.23,12.57-1.55,7.99-5.99-4.09-3.97-7.51,5.14-7.99,5.99-3.76,1.64-8.56,1.96-7.99,7.99,6.32.82,6.24-4.9,7.99-7.99ZM1071.06,513.9v2c1.3-.67,1.3-1.33,0-2ZM1070.03,525.89v-7.98h-1.96v7.98h1.96ZM1084.04,525.89c.21-.21,1.38-4.88,1.03-5.95-9.07,2.52-3.87,8.82-1.03,5.95ZM1050.06,587.9c-2.1,4.79-12.93,14.12-11.98,22,6.78-4.42,10.63-14.62,13.98-22,2.12-4.67,22.41-59.81,15-60.02l-17,60.02ZM1078.06,529.9c-.46.49-3.14.16-1.98,4l3.98-4-1-1.96c-1.27.04-.87,1.82-1,1.96ZM1075.06,535.9v2c1.3-.67,1.3-1.33,0-2ZM1007.07,595.94c-1.67,1.64-4.75,5.5-4.04,7.92,1.67-1.64,4.75-5.5,4.04-7.92ZM1037.06,611.9v2c1.3-.67,1.3-1.33,0-2ZM972.03,667.9c.8-.86,5.96-18.77,8-22-5.81,3.09-10.38,13.16-11.67,19.35-.82,3.92,2.75,3.64,3.67,2.65ZM941.06,659.9v2c1.3-.67,1.3-1.33,0-2ZM936.06,663.9c-12.5,5.76-23.77,13.74-36,20-5.33,2.73-14.73,3.7-18,9.98,7.12,1.47,14.02-6.22,18-7.98,1.16-.51,3.91,0,5.95-.97,11.64-5.59,21.87-10.61,30.05-21.03.45.45,2.05-.31,2-1-.15-2.18-2.94.06-2,1ZM1082.06,673.9c-.44.64-3.37,1.39-3.96,3.02.66,1.45,3.07-.37,3.96-1.02,2.08-1.52,7.34-6.33,8.02-8.98-4.77-3.49-6.46,4.7-8.02,6.98ZM924.06,695.9c-7.12.53-13.55,2.22-20.02,5,6.38,1.94,13.07-.81,20.02-1,22.95-.63,43.24,4.24,66,4,2.87-.03,17.47,2.1,16.01-2.98-.58-2.03-12.69-.84-16.01-1.02-22.06-1.22-43.85-5.65-66-4ZM822.06,715.9c-19.04,6.52-44.52,19.88-60.66,32.34-1.79,1.38-5.74,3.34-2.32,5.68,3.08-.32,6.07-1.8,8.73-3.27,15.34-8.45,41.26-29.49,56.24-34.76,3.26-1.15,11.18,2.57,6.97-4.03l-8.97,4.03ZM853.06,719.9v2c1.3-.67,1.3-1.33,0-2Z"/>
      <path class="cls-1" d="M638.06,99.9c2.42,2.42-2.05,24.32-2,29,.06,6.26,4.67,35.38,1.78,38.79-3.87.46-24.63,4.93-25.68,4.16-1.11-.81-3.73-15.71-14.23-22.81-25.75-17.41-66.29-5.49-88.81,12.92-77.8,63.63-42.3,228.79,70.98,218.98,5.06-16.62,17.16-36.51,21.67-52.37.99-3.48.07-2.22-2.18-3.14-9.34-3.84-24.84.04-35.49-3.57l5.18-28.07c15.73.3,31.45,3.74,46.8,7.09,52.1,11.38,184.3,53.24,150.98,129.03-9.43,21.44-49.74,42-72,42h-43c2.17,9.57,8,17.06,9.84,27.16,3.97,21.78-.73,48.41,4.66,69.34s25.37,19.5,37.44,4.44c10.67-13.3,12.22-32.54,17.97-48.13l28.09,7.21c-11.33,36.73-22.92,87.41-72.53,79.5-82.26-13.12-3.66-136.24-84.33-153.6l-33.25,89.12.21,2.86c5.63,1.7,33.16,11.13,35.02,14.09,2.15,3.41-6.12,20.96-7.38,21.77-4.52,2.92-88.06-31.15-101.75-29.77l8.25-25.73c9.45-3.33,31.57,13.19,37.56,4.56l38.14-122.75c-61.1-4.07-110.9-39.5-127.83-99.17-28.99-102.13,45.64-245.06,165.88-190.9v-21.99h30.01ZM600.11,427.76c31.82,15.66,107.35,27.66,132.83-1.98,22.65-26.35-5.53-53.14-27.54-66.22-11.8-7.02-60.52-28.13-71.98-25.36-5.82,1.41-17.66,30.43-18.39,37.65,15.37-7.02,30.22-15.85,42.3-27.81,2.51-.44,23.18,20.11,22.64,22.65-16.27,14.71-34.69,26.44-54.57,35.56-15.94,7.31-23.36,3.14-25.29,25.52Z"/>
      <path class="cls-1" d="M883.43,663.29c-1.65,1.86-17.79,10.12-20.36,10.64-2.75.56-3.82-.17-2.99-2.99,2.53-8.57,12.76-23.31,16.9-33.11,71.17-168.22,52.89-388.63-73.91-525.96-121.11-131.18-296.35-124.32-408.97,13.09-118.87,145.04-133.02,378.25-40.08,539.97.62,2.73-.15,3.78-2.94,2.94-1.8-.54-16.1-7.16-17.78-8.23-15.32-9.71-39.62-94.99-44.28-115.72-30.99-137.78-6.86-292.95,75.39-408.65,129.66-182.39,352.17-178.98,481.26,2,106.05,148.67,118.57,363.07,37.75,526.02Z"/>
      <path class="cls-1" d="M676.06,821.9c-4.32-2.67-12.64-4.23-10.05,3,.27.77,3.45,1.49,4.81,3.22,5.49,7,5.59,4.59,6.96,5.97s-.42,7.09.27,7.83c.73.78,8.59-1.09,9.9.21.71.7-.47,4.89.22,5.57,1.2,1.17,7.66-.51,10.5.16,2.38.56,3.22,8.64,7.28,5.9.2-.14-.66-5.73,3.08-3.83,2.89,1.47,3.47,9.3,6.06,9.97,4.94,1.28,3.74-13.62,13.97-.03,3.17-1.73,2.05-6.4,4.3-8.13,5.7-4.39,15.41,5.4,14.72-7.83,10.48.38,10.01,14.65.53,15.65-3.68.39-7.19-1.55-9.32-1.16-3.04.55-5.94,7.05-12.33,7.45-13.63.84-41.07-7.44-51.89-15.94-2.68-2.11-18.31-21.72-18.75-23.4-.88-3.35,2.83-10.2,5.77-11.71,3.88-1.99,7.32,1.42,10.94,1.15,5.14-.39,19.15-24.13,22.1-29.95,14.29-28.21,23.13-73.49,24.91-105.09.66-11.62-4.42-70.61,2.04-74.97,10.04-6.77,15.81,28.08,17.02,33.95,8.61,41.9,11.47,93.43-1.62,134.47-2.89,9.07-6.02,19.54-13.41,25.57,11.32-31.72,16.31-65.94,15.96-99.99-2.6-.55-3.21,3.72-3.47,5.48-1.05,7.02.07,14-1.01,21-4.01,25.97-12.17,59.71-29.47,79.51-1.06-11.47,6.13-21.11,9.4-31.57,1.6-5.11,1.46-10.21,2.58-14.43.56-2.11,7.81-8.68,3-14.02-1.66-.05-4.14,11.49-5,14.02-3.18,9.37-19.98,44.53-19.93,48.86.12,8.66,13.92,15.32,21.92,13.15l-1.97,17.98,7.98-9.99h2c-2.09,6.09-1.04,10.37-2.33,14.68-2.12,7.12-6.53.34-9.21-.34-3.54-.9-6.59,1.54-9.12,1.02-6.2-1.27-13.3-7.33-19.35-9.4l3.02-5.92c-7.24,7.73-5.41,2.41-8.69.11-1.11-.78-3.9.2-4.33-.17-1.04-.88,1.95-5,2-5.98l5.96-5.02-.94-.94-7.02,3.96ZM691.06,825.9v2c1.3-.67,1.3-1.33,0-2ZM708.05,825.91c-3.45-4.17-9.07,11.82-7.97,13.99,3.35-.52,9.05-12.69,7.97-13.99Z"/>
      <path class="cls-1" d="M500.06,711.9c.45,8.18-.72,16.56.26,24.74,2.41,20.14,8.05,39.91,13.73,59.25-5.02,1.03-8.05-9.8-9.52-13.46-16.09-39.86-15.04-95.14-7.93-136.99.96-5.62,7.41-35.73,9.25-38.36,6.53-9.37,11.71,8.51,12.23,13.81,5.79,58.66-4.99,99.27,22.27,157.72,4.07,8.73,25.59,37.72,25.82,40.45.3,3.58-3.19,2.59-3.49,3.22-.53,1.1,1.65,3.35.4,5.55-.4.71-7.48,7.15-9.01,6.07l-5.02-7.96c-1.07,2.44,2.62,5.45,3.02,7.96,1.58,9.89-27.27,13.51-33.93,13.97l-6.05-23.97c7.13,2.46,6.77,12.33,11.96,15.99l-1.97-19.98c3.56-1.16,9.24,5.62,11.79,3.84.63-.44,7.97-11.84,8.18-12.91,1.82-9.27-8.29-21.52-11.98-30.94-4.64-11.85-7.75-24.43-13-36.02-1.28,11.02,4.04,22.42,7.47,32.63.69,2.05,3.43,3.1,3.53,3.39,2.81,7.97,6.86,19.89,5.01,27.99-20.79-26.53-27.33-63.01-31.01-95.99-.72-6.5,1.73-14.38-3-20.02-4.02.11.94,18.89,1,20.02ZM557.04,817.94c-1.98,1.39,1.08,2.75,2.04,3.92,1.99-1.31-.93-2.65-2.04-3.92ZM536.03,825.9c-.8-.9-5.4-.62-3.96,2.97l9.98,11.01c-4.15-2.36-5.5-13.41-6.02-13.98Z"/>
      <path class="cls-1" d="M581.75,816.19c1.5.94,2.51,7.78,1.95,10.19-.25,1.06-10.29,16.77-11.66,18.51-6.3,8.02-25.67,16.56-35.53,18.66-3.44.73-6.56-1.39-9.2-1.05-3.72.48-6.18,3.76-12.21,3.55-7.73-.26-12.54-7.62-14.02-7.63-1.05-.01-2.89,3.03-5.63,3.05-12.06.12-12.29-15.42-4.42-15.59,1.97-.04,2.39,7.53,3.06,8.03,1,.74,7.38-2.77,10.6-2.16,2.02.39,3.19,7.43,6.56,8.08,2.4.47,4.52-3.9,7.78-4.01.57-.02,1.94,7.01,9.01,4.09l.02-8.03,11.97,4.02c-1.71-11.43,10.02-6.47,11.89-8.24.89-.85-1.07-5.5,1.24-5.91s7.28,1.18,8.71-.15c.52-.48-.27-3.51.8-4.97,2.89-3.94,12.55-11.32,11.43-15.75-.33-1.33-6.09.23-4.04-4.97,3.12.54,9.47-1.11,11.69.28Z"/>
      <path class="cls-1" d="M732.04,845.89c-6.45,1.74-5.01-6.47-.98-9.98l.98,9.98Z"/>
      <path class="cls-1" d="M772.06,777.9h-2c.69-.43,1.45-3.36,3.02-3.96,1.54.86-.29,2.58-1.02,3.96Z"/>
      <path class="cls-1" d="M469.04,777.94c4.9,5.88,13.12,10.69,16.04,17.92-4.9-5.88-13.11-10.68-16.04-17.92Z"/>
      <path class="cls-1" d="M490.06,801.9c-.51-.68-3.34-1.36-3.96-3.02l.94-.94c1.73.75,2.2,3.14,3.02,3.96Z"/>
      <path class="cls-1" d="M3262.06,311.9c2.01,19.42-2.28,12.87-13.46,17.54-9.85,4.11-13.67,11.01-17.49,20.51l-68.82,224.76c-1.37,1.94-22.17,3.18-23.9-2.14l-53.35-166.69-55.13,166.86c-1.97,4.84-22.72,4.04-24.08,1.99l-72.75-232.86c-7.47-14.77-25.35-14.08-26.75-16.25-1.27-1.97-.69-11.25,1.61-12.87,3.73-2.64,82.01-2.09,91.22-.97,7.39.9,9.82,8.81,6.63,13.83s-26.38-3.46-23.61,21.06l47.85,153.19c9.91-33.7,23.07-66.62,32.55-100.46,6.67-23.82,18.78-53.55-9.79-69.26-11.18-6.15-17.49,1.49-14.74-18.26h99c3,0,4.28,12.04,2.79,13.8-2.27,2.69-31.47,1.85-25.65,18.92,15.7,51.89,30.84,104.36,48.86,155.3l45.06-153.11c1.65-9.64-4.9-13.76-12.66-17.31-11.64-5.33-15.55,1.32-13.4-17.6h80Z"/>
      <path class="cls-1" d="M1604.06,538.9c.27,1.66,3.87,9.2,5.08,10.92,8.13,11.65,27.27,8.51,28.9,10.1.66.64.61,11.37-1.85,13.11-8.77,6.16-89.8-4.83-106.14-1.12-3.18-17.71,6.03-10.08,17.43-15.59,10.28-4.97,11.89-18.94,12.67-29.33,4.23-56.65-3.19-118.69-.26-175.91-2.23-8.46-5-18.73-13.79-22.21s-20.63,1.39-15.74-13.68c2.05-6.32,14.77-1.36,20.61-1.2,45.28,1.26,109.95-11.84,149.16,10.84,41.78,24.16,37.68,87.27-2.68,111.45-8.86,5.31-18.65,7.01-26.87,11.18-1.89.96-3.22-.52-2.5,3.4,22.27,26.84,39.85,65.74,62.96,91.05,4.28,4.69,9.54,9.87,15.22,12.78,12.66,6.47,21.02.03,17.8,19.2h-63c-28.77-33.63-49.65-73.18-74.08-109.92-6.36-5.24-14.94-6.61-22.92-6.08,2.88,24.42-3.87,57.71,0,81ZM1604.06,439.9h31c13.53,0,32.94-15.06,39.42-26.58,14.24-25.3,9.3-75.41-24.31-82.53-8.25-1.75-46.11-4.27-46.11,8.11v101Z"/>
      <path class="cls-1" d="M2779.61,308.45c183.97-19.88,174.11,292.76-2.03,268.93-38.08-5.15-85.65-60.35-96.08-95.92-21.01-71.65,17.48-164.3,98.11-173.01ZM2781.54,328.38c-75.36,11.91-76.81,218.67,3.69,229.35,87.24,11.58,87.35-130.62,66.87-184.87-11.94-31.65-35.85-49.96-70.56-44.47Z"/>
      <path class="cls-1" d="M2030.06,573.9c-3.24-19.92,5-11.51,15.92-19.08,4.52-3.13,8.5-10.07,11.04-14.96l82.12-223.88c2.34-4.85,25.11-7.77,27.14-4.89l81.42,226.16c3.97,10.63,10.13,17.1,20.73,21.3,6.63,2.62,13.7-1.34,9.34,12.07-1.12,3.45-3.59,3-6.62,3.37-9.25,1.14-89.39,1.7-93.21-.97-2.65-1.85-2.73-8.8-1-11.25,3.48-4.93,22.46.99,23.24-16.89.23-5.31-15.59-54.42-18.04-56.06-27.92-1.38-56.85-1.84-84.32.24-1.99,14.83-21.78,48.78-13.56,61.65,5.42,8.48,21.22,6.65,25.35,9.61,3.01,2.16,3.28,13.58-.56,13.58h-79ZM2106.06,469.9h70l-34.98-98.01-35.02,98.01Z"/>
      <path class="cls-1" d="M2046.06,313.9c-1.89,10.3,7.6,67.32,3.78,71.79-.7.82-15.03,3-15.79,2.22-1.38-14.91-4.1-36.67-16.12-46.89-2.57-2.19-16.61-9.12-18.88-9.12h-66c-.21,0-3,2.79-3,3v95h47c19.65,0,19.03-37.91,21.1-39.89,1.04-1,10.99.45,13.9-.11v98c-21.17,4.14-12.62-9.56-19.21-23.79-2.09-4.52-11.29-14.21-15.79-14.21h-47v89c0,.6,4.15,9.79,5.04,10.96,9.37,12.4,43.83,3.8,29.68,23.74l-105.91.19c-6.67.54-5.32-11.37-2.37-13.48,1.83-1.3,11.46-1.69,15.56-3.42,9.12-3.86,11.27-12.73,12.08-21.91,5.25-59.2-4.09-126.06-.08-186.09-1.26-8.34-3.55-16.7-11.97-20.03-10.31-4.07-20.42,2.18-15.11-15.06,2.29-3.87,5.25.09,6.08.09h183Z"/>
      <path class="cls-1" d="M1503.77,314.19l4.29,93.72c-21.8,2.79-14.85-3.47-19.95-19.07-13.8-42.19-52.84-75.55-98.77-56.65-60.26,24.8-59.74,142.74-28.17,189.58,26.11,38.73,84.91,38.64,116.94,7.2,6.44-6.32,21.2-32.94,23.2-33.24,2.6-.39,13.11,3.4,12.92,7.15-.16,3.04-10.2,22.08-12.54,25.66-50.56,77.46-166.88,60.77-199.69-23.6-38.92-100.08,26.08-223.19,144.06-192.06,9.76,2.58,31.42,15.42,39.19,9.2,5.23-4.19,1.79-16.11,18.51-7.9Z"/>
      <path class="cls-1" d="M2486.06,573.9c-2.44-20.1,3.16-12.85,16.03-16.97s13.13-14.25,14.04-25.96c4.58-59.12-3.46-124.19-.2-183.94-.72-4.68-4.96-12.43-8.83-15.17-5.14-3.65-19.73-4.6-20.82-6.18-1.39-2.01.01-14.9,4.7-13.91,12.39,1.71,99.09-2.58,102.2,2,1.23,1.82,1.66,10.17.6,11.86-1.25,1.99-18.89,2.53-24.48,6.51-4.59,3.26-5.75,9.71-7.06,14.94l.72,200.93c.7,1.68,1.51,4,3.08,4.92,3.17,1.87,40.38,1.5,46.99.95,28.73-2.4,36.96-10.62,48.01-35.99,4.13-9.48,3.28-27.34,19.74-18.07,5.47,3.08-7.95,63.82-6.71,74.09h-188Z"/>
      <path class="cls-1" d="M2390.06,313.9c-.56,3.14,1.09,9.51-.27,11.73-2.04,3.31-28.12-1.12-31.6,21.4v197.74c.81,4.48,2.01,8.24,6.87,9.14,8.87,1.64,40.03.94,49.99-.02,16.67-1.61,28.26-6.66,36.63-21.37,4.35-7.65,8.5-27.21,11.36-30.64,3-3.6,10.57-1.57,15.04-1.97l-8,74.02c-61.88-2.09-123.93-2.41-186.02-2-2.24-16.52,2.71-10.54,14.45-14.59,13.86-4.78,14.61-14.35,15.65-28.33,4.26-57.28-3.18-120.01-.31-177.86-1.79-10.92-4.27-18.64-15.29-22.7s-16.82,2.37-14.48-14.52h106Z"/>
      <path class="cls-2" d="M1604.06,439.9v-101c0-12.38,37.86-9.86,46.11-8.11,33.61,7.12,38.56,57.23,24.31,82.53-6.48,11.52-25.89,26.58-39.42,26.58h-31Z"/>
      <path class="cls-2" d="M2781.54,328.38c34.7-5.49,58.61,12.83,70.56,44.47,20.48,54.26,20.37,196.45-66.87,184.87-80.5-10.68-79.04-217.44-3.69-229.35Z"/>
      <polygon class="cls-2" points="2106.06 469.9 2141.08 371.89 2176.06 469.9 2106.06 469.9"/>
    </g>
  </g>
</svg>