<?xml version="1.0" encoding="UTF-8"?>
<svg id="Layer_2" data-name="Layer 2" xmlns="http://www.w3.org/2000/svg" viewBox="0 0 2283.48 2083.92">
  <defs>
    <style>
      .cls-1 {
        fill: #f8f9f9;
      }

      .cls-2 {
        fill: #b65c23;
      }
    </style>
  </defs>
  <g id="Layer_1-2" data-name="Layer 1">
    <path class="cls-2" d="M1320.4,1717.42c31.34-3.18,58.48-19.45,86.71-31.39l785.46.38c7.23,11.24,9.51,21.14,20.76,29.85,4.96,3.84,19.99,9.68,20.65,10.69.9,1.38,3.68,24.06,3.69,27.79.28,80.24-3.79,160.42-2.71,241.16.1,7.21,5.69,18.58-.46,24.65-2.18,2.15-13.24,4.47-18,7.29-14.52,8.59-15.17,21.31-23.92,33.92H155.4c-4.84-22.08-19.82-36.56-41.45-42.12v-291.1c20.3-6.32,38.54-19.8,41.35-42.21l762.66-.3c46.47,28.4,97.03,37.22,151.49,31.1,2.82-.32,13.22-1.09,13.54-4.51-32.8-1.02-65.71-5.41-97.06-15.03l-21.02-11.48,391.64-.04c1.53,4.19-8.01,7.18-10.88,8.4-32.42,13.75-71.11,17.25-105.99,18.15-.72,2.43,10.24,4.8,10.83,4.8,21.74,0,49.01,2.12,69.9,0ZM504.31,1784.72c-2.23,1.62-39.19-13.09-47.01-14.01-158.92-18.71-154.38,231.93-2.41,213.99,28.9-3.41,73.35-30.68,68.98-63.41-8.39-5.9-7.6,4.36-12.06,9.46-21.2,24.22-39.23,36.37-73.27,32.25-61.03-7.39-67.79-98.83-47.73-143.6,20.54-45.85,89.27-42.25,111.77.03,4.01,7.53,8.52,33.37,17.61,30.54,6.99-2.18,1.39-13.66,1.24-18.08-.71-20.53.33-41.02-2.43-61.45-13.28-4.97-11.11,11.68-14.7,14.29ZM948.03,1982.54h68.69c2.87,0,5.12-10.02,3.53-11.95-2.43-2.95-23.74,1.2-23.62-13.24.05-6.44,11.41-38.66,16.46-41.08,8.74-4.2,18.85,1.1,27.63,1.3s39.71-2.25,43.49,2.3c4.94,5.94,12.84,36.42,10.94,44.22-1,4.09-20.47,5.27-21.55,6.63-2.83,3.53.59,11.83,5.78,11.83h80.74c.49,0,2.56-7.82,1.4-9.66-2-3.19-14.23-5.69-18.86-9.56-14.65-12.27-57.17-150.45-71.26-180.07-5.13-10.77-8.89-16.19-22.2-11.63-12.84,26.61-21.48,55.6-32.52,83.15-11.28,28.14-27.29,76.31-41.66,100.54-2.5,4.21-4.99,7.44-9.27,10-10.93,6.55-21.19.17-17.72,17.23ZM1600.61,1771.07c-140.82,17.84-109.79,243.47,37.37,213.32,123.36-25.28,107.56-231.67-37.37-213.32ZM603.37,1954.83c-3.74-17.55,2.77-47.27,0-66.28l15.84,2.24c17.18,23.62,32.89,51.41,51.75,73.58,4.04,4.75,14.38,18.18,20.38,18.18h51.82c3.47-18.19-7.59-11.36-18.65-16.3-4.34-1.94-11.6-9.9-15.16-13.76-6.69-7.25-45.91-59.57-47.67-65.62-.55-1.9-.65-3.61-.49-5.53,52.13-3.08,71.73-76.48,21.73-100.06-25.22-11.9-99.32-10.55-129.08-8.52-2.8.19-12.62.94-13.29,3.96-3.91,17.65,22.11,3.31,24.38,26.15,4.81,48.48-3.82,104.97-.19,154.34-2.96,15.57-29.14,6.4-23.77,21.44,1.47,4.13,4.59,3.63,8.04,4.03,9.26,1.08,73.48,1.4,79.29-.48,4.6-1.49,5.55-8.21,2.95-11.87-2.51-3.53-24.61-.08-27.89-15.48ZM969.72,1833.11v-56.64c0-7.63-24.85-1.27-30.03-1.11-43.72,1.37-87.75-1.21-131.47-.11v12.08c10.62-.93,20.84-.89,24.05,10.9.08,45.8.17,91.61-.05,137.41-.04,8.08,5.08,21.78-2.84,29.48-5.34,5.2-29.52,1.45-20.1,15.17,3.1,4.52,52.86-.56,62.92-.26,6.55.2,22.5,6.07,26.57.26,11.33-16.14-23.41-7.79-27.41-21.12-2.63-8.75-.11-32-.37-43.02-.68-29.2-12.09-39.14,30.15-34.97,31.38,3.1,21.66,29.5,27.79,33.66,2.6,1.76,11.86-.66,11.86-3.41v-78.33c-19.54-5.84-9.48,33.74-25.31,33.74h-44.59c-.42-14.04.53-28.22.1-42.28-.16-5.26-6.8-34.85,1.11-34.85h65.08c3.32,0,11.75,9.17,13.74,12.77,6.59,11.92,2.65,33.89,18.79,30.62ZM2025.39,1775.27h-59.05c-1.02,0-4.51-4.76-7.33-.11-10.22,16.9,29.39,7.62,20.4,30.02l-36,114.7c-4.22-.99-5.16-5.63-6.65-8.99-8.05-18.13-35.39-94.06-36.57-110.65-1.28-18,31.85-9.1,20.52-25.15-5.19-7.35-72.83,2.45-85.74.19-2.21,14.31,5.82,10.09,13.82,13.9,8.97,4.27,13.72,18.59,14.98,28.07l-36.05,105.04c-4.22-.99-5.16-5.63-6.65-8.99-6.96-15.72-35.17-96.63-36.57-110.56-2.07-20.58,13.74-10.93,21.64-16.52,2.63-1.86,3.46-8.65,2.08-10.72-4.53-6.76-53.66-.63-63.64,0-6.09.38-23.95-4.83-27.68,3.42-3.86,8.52,12.09,7.76,17.77,11.11,3.09,1.82,5.35,4.38,6.8,7.66l66.9,186.16c6.37,2.37,14.93,2.8,17.53-4.35l46.45-134.34c7.34-.14,39.32,129.5,50.42,137.58,8.51,6.19,17.67.37,20.8-8.49l59.63-176.56c5.01-13.73,26.37-6.29,22.19-22.39ZM1252.92,1775.27h-87.97c-4.06,18.8,21.63,5.34,24.22,25.19-5.39,47.83,6.89,110.64-.28,156.62-2.71,17.4-27.7,9.13-18.07,23.22,4.21,6.16,131.68.2,149.27,1.94,7.48-2.55,7.04-46.9,10.88-56.14-14.52-14.55-16.05,15.01-22.73,25.01-2.49,3.73-15.87,14.57-19.17,14.57h-61.46l.05-167.46c2.69-13.98,26.74-10.79,28.87-13.33,1.4-1.67-.68-8.78-3.62-9.62ZM1427.66,1775.27h-91.59c-2.85,14.07,5.97,8.65,15.03,12.7,19.31,8.64,8.97,40.36,8.89,55.95-.04,7.97,2.61,14.61,2.7,21.63.23,18.78,2.71,84.81-3.7,97.73-4.75,9.59-23.95,1.01-18.08,19.26l154.12-2.52c-.92-11.85,11.77-47.63,9.55-56.21-.62-2.42-3.19-4.01-5.84-4.02-10.48-.01-14.32,36.05-33.54,43.65-9.61,3.8-52.3,4.92-62.47,1.86-1.33-.4-3.99-2.39-3.99-3.24v-166.3c0-10.4,35.95-3.08,28.92-20.49Z"/>
    <path class="cls-1" d="M217.73,59.22c3.11,3.49-17.79,50.65-20.47,60.25-8.54,30.53-13.65,62.03-.67,92.25,6.89,16.03,17.75,25.25,36.24,20.43,21.41-5.59,53.89-77.92,69.68-99.01,20.36-27.21,54.19-59.72,88.76-64.27.45,4.1-.15,7.63-1.82,11.41-6.51,14.76-31.8,40.77-41.96,59.26-30.37,55.23-42.67,138.14,49.21,107.05,47.46-16.06,82.58-38.71,135.9-42.46,14.53-1.02,67.65-.42,44.16,22.48-68.37,28.68-120.33,59.62-163.32,121.06-173.76,248.34-112.78,662.4,112.8,860.03,99.3,86.99,232.12,107.34,340.65,177.49,8.29,5.36,33.16,20.73,37.85,27.28,6.4,8.96,11.35,49.41,15.6,63.93,3.82,13.03,10.04,24.47,13.99,36.64.72,2.22,3.84,7.33-.71,6.73-11.89-17.04-30.04-35.24-45.79-49.42-37.67-33.93-119.6-89.6-168.12-101.83-2.32-.59-10.71-2.68-10.25,1.81,14.34,4.39,27.74,11.21,41.01,18.06,66.37,34.25,145.88,91.36,182.64,157.2,10.5,18.8,20.59,41.58,19.75,63.37-5.52.93-4.71-.47-5.98-4.73-5.88-19.74-4.85-31.68-15.3-52.3-47.74-94.29-246.02-190.98-347.39-211.78-108.19-22.2-189.08,24.91-290.44-59.04-9.79-8.11-20.44-26.44-32.6-25.25,36.83,47.57,95.86,81.67,155.73,90.11,54.61,7.7,103.95-5.59,160.02,6.28,99.72,21.12,330.6,117.84,349.25,231.6.46,2.8,2.25,14.96-2.18,15.45-5.78-16.19-12.79-32.08-22.18-46.52-55.67-85.65-224.42-164.36-322.48-183.66-97.47-19.18-168.37,12.41-264.35-44.15-59.8-35.24-118.1-124.91-106.26-196.27,8.09-48.79,26.46,26.53,30.32,36.01,26.94,66.17,91.11,114.76,161.38,125.43,38.53,5.85,80.02,5.52,61.29-46.83-4.36-12.19-51.69-74.57-61.89-82.73s.25,4.67-8.5,2.5c1.65-14.48-2.37-6.44-6.08-9.4-13.62-10.87-30.65-49.14-39.76-65.32l-4.82,1.22c1.64,3.51,1.4,7.93,2.68,11.31,17.74,46.83,63.54,84.42,90.45,126.94,5.3,8.37,14.58,21.8,11.75,31.63-36.04-40.41-78.06-75.18-109.23-119.74-37.2-53.18-58.84-128.33-109.11-168.06-27.25-21.54-73.47-29.23-81.73-66.47,17,4.09,38.88,13.76,35.97-13.03-3.02-27.73-43.77-66.63-58.08-93.83-13.9-26.42-16.7-57.26-29.58-81.29-15.1-28.17-55.76-48.61-45.94-86.62,22.52,28.11,73.25,50.26,57.33-9.12-17.98-67.03-68.12-79.57-95.07-129.08-3.38-6.21-18.78-48.82-3.24-44.99,1.75.43,17.22,22.68,22.9,27.74,49.57,44.21,85.96,25.64,65.78-41.67-19.81-66.07-76.09-112.17-51.16-192.01,1.34-4.29,9.75-27.71,15.62-18.28,2.53,4.06,2.55,29.95,3.79,37.19,3.66,21.43,35.18,101.1,66.21,78.77,19.22-13.83,6.72-67.89,5.74-88.05-2.77-57.11,8.61-119.1,45.97-163.92,3.54-4.25,31.47-32.94,36.07-27.78ZM309.33,150.8c6.49-5.25,12.21-13.45,14.45-21.68l-9.51,9.07-4.94,12.61c-.54-.54-2.47.37-2.41,1.21.18,2.63,3.55-.07,2.41-1.21ZM287.61,211.04c1.64-19.57,14.78-36.11,18.12-55.37-7.61,10.49-19.78,32.96-21.89,45.68-.45,2.74-.52,9.77,3.76,9.7ZM143.02,355.64c10.1,7.82,18.68-29.15,19.26-34.95,3.91-39.41-5.15-83.17-3.95-124.68.1-3.49,3.03-5.85-2.06-9.05-18.76,48.09,11.76,110.66-6.51,157.36-1.21,3.1-7.25,10.92-6.73,11.32ZM376.81,276.13h-34.95c-3.63,0-19.65-9.91-22.88-13.27-5.52-5.75-11.95-24.85-13.3-25.3-5.72-1.93-3.11,4.66-2.56,7.4,6,29.81,26.11,41.07,55.58,38.37,5.28-.48,15.78-1.64,18.1-7.19ZM509.37,240c-67.06,22.47-122.17,71.26-160.07,130.33-10.87,16.94-25.95,40.44-27.9,60.04l30.32-50.39c31.75-45.45,71.07-85.79,117.84-115.95,13.05-8.42,28.18-14.05,39.82-24.03ZM220.15,354.46v40.97c0,.59,2.36,11.54,4.8,10.83,1.17-15.08.96-32.12,2.46-46.97,1.38-13.66,6.7-32.67,6.39-45.49-.05-1.92-.88-7.08-3.97-6.34l-9.67,46.98ZM118.95,473.76c6.92-2.8,5.21-14.4,4.87-20.58-1.85-34.02-33.29-89.77-52.62-118.48-2.1-3.12-2.7-6.6-7.71-5.53,15.5,49.41,56.89,90.11,55.46,144.59ZM251.46,521.95c5.87-43.94,13.41-87.83,24.81-130.66,3.79-14.26,11.67-27.98,11.34-42.86-6.86,4.84-9.72,16.73-12.68,24.65-15.56,41.62-27.62,96.1-25.86,140.47.12,2.92-1.82,8.96,2.38,8.4ZM186.4,399.04c-4.29-.15-5.13-1.21-4.83,3.6.97,15.64,2.89,34.78,5.16,50.32,1.66,11.33,5.62,36.41,9.33,46.1,1.43,3.73,2.06,6.96,7.2,6.03l-16.87-106.04ZM285.2,746.1c-.7-66.23,2.64-133.52,17.6-198.12,4.65-20.07,13.08-39.33,16.14-59.76-9.35,11.03-15.36,29.82-19.89,43.95-20.26,63.19-25.14,129.6-18.36,195.57l4.51,18.35ZM106.85,567.76c1.2-10.95-13.56-23.21-21.64-30.16-9.63-8.28-23.37-19.05-36.18-20.43l57.82,50.59ZM251.47,524.39c-9.48-1.75-3.04,16.17-4.78,21.67,5.72-.47,5.6-20.59,4.78-21.67ZM152.35,534.35c-1.02-.65-6.68-1.35-6.9.85,11.69,17.82,17.48,40.61,31.29,56.66,1.53-8.22-21.43-55.61-24.39-57.51ZM253.87,818.41c-6.81-61.93-19.11-123.35-34.4-183.68l-11.34-33.21,45.74,216.89ZM203.25,755.74c-2.14-24.62-15.59-53.2-26.83-75.57-5.05-10.05-13.27-27.01-20.34-35.09-2.39-2.74-3.68-5.98-8.24-4.99l55.41,115.65ZM297.25,917.24l-32.5-228.96c-5.91,8.51-4.08,24.55-3.73,35.03,1.66,49.92,11.34,140.89,30.77,186.15,1.27,2.97,1.28,7.11,5.46,7.78ZM106.46,698.41l-6.8.69c25.44,36.46,31.12,84.31,62.63,116.91l-1.83-11.41-54-106.19ZM198.04,823.74c-1.42-.82-6.48-1.6-6.8.69l40.94,83.15c2.35-13.22-26.67-79.54-34.13-83.84ZM350.29,1131.73c-8.92-21.53-18.2-42.77-25.29-65.07-17.88-56.24-26.18-123.21-47.03-177.12-1.45-3.75-2-6.98-7.2-6.03,19.51,81.57,26.89,163.79,69.51,237.78,2.2,3.82,4.45,11.76,10.02,10.43ZM398.51,1105.23c1.92,2.77,6.91,13.98,8.46,14.48,12.32,3.93-5.6-13.67-6.05-14.48-14.92-26.88-29.26-59.43-40.36-88.58-5.13-13.47-28.17-97.88-33.17-99.43-5.37-1.67-3.12,2.21-2.56,4.98,13.08,65.64,35.63,128.05,73.69,183.03ZM253.88,960.61c4.03-3.98-19.31-18.11-22.46-19.69-9.54-4.78-22.27-9.68-32.95-9.19l55.41,28.89ZM256.32,960.63c-2.8,2.8,6.03,9.57,9.58,8.45-1.96-1.89-6.08-11.94-9.58-8.45ZM273.16,979.89c2.47-2.5-4.78-9.66-7.21-7.21s4.78,9.66,7.21,7.21ZM277.95,982.33c-8.22-7.06-2.32,14.78,4.84,14.44.73-2.45-4.14-13.83-4.84-14.44ZM412.94,1126.91c1.73-3.39-1.52-6.43-2.36-4.8-1.73,3.39,1.52,6.43,2.36,4.8ZM352.69,1138.96c1.73-3.39-1.52-6.43-2.36-4.8-1.73,3.39,1.52,6.43,2.36,4.8ZM464.76,1213.74c-2.38,1.68,1.3,3.31,2.46,4.72,2.4-1.58-1.12-3.19-2.46-4.72ZM485.25,1257.06c.71-5.9-.02-10.58-1.85-16.19-.83-2.55-10.93-24.2-14.99-19.93l16.83,36.13ZM534.66,1240.25c-2.38,1.68,1.3,3.31,2.46,4.72,2.4-1.58-1.12-3.19-2.46-4.72ZM644.34,1307.67l-103.63-62.63c-2.7,2.59,11.12,14.99,13.3,16.81,24.24,20.22,60.14,37.32,90.33,45.82ZM596.12,1317.36c-22.97-7.22-46.88-11.04-71.06-9.65-15.44.89-32.96,6.16-48.26,7.18-6.96.46-63.84-2.22-63.86,1.24,19.58,5.6,41.12,7.1,61.46,6s42.88-7.06,62.59-7.31c17.03-.22,33.81,3.97,50.64,5.02,2.62.16,9.15,1.54,8.49-2.48ZM899.83,1425.81c-.48-.44-9.04-.99-12.69-3-13.96-7.69-28.63-20.81-42.95-29.35-27.69-16.53-59.69-34.01-91.38-39.95.59,3.45,4.44,4.65,7.12,6.11,22.76,12.42,47.4,21.83,70.75,35.3,15.29,8.82,49.65,37.51,65.51,35.77,3.35-.37,7.12-1.65,3.65-4.87Z"/>
    <path class="cls-1" d="M1048.05,765.4c-27.52-3.03-73.32-20.91-97.42-35.14-232.52-137.31-105.24-587.39,155.09-521.44,16.65,4.22,31.86,11.71,47.17,19.09.11-13.77.8-27.49-2.39-40.95l60.26-2.44c-2.51,43.6-1.64,86.67,2.41,130.17l-52.94,7.18c-11.97-75.21-108.29-68.05-160.78-41.33-153.22,77.99-144.21,350.55,13.03,416.8,28.47,11.99,53.8,12.14,84.01,14.93l5.37-3.95,38.98-101.99-72.3-4.84,7.27-55.4c32.94,2.98,66.38,8.55,98.82,15.61,93.85,20.44,311.11,88.48,286.13,216.29-17.9,91.59-151.87,110.12-228.26,101.86,22.88,27.48,23.86,64.7,26.44,98.87,1.86,24.75-3.24,89.24,18.47,104.45,49.44,34.65,85.64-71.67,87.7-105.59l55.35,14.4c-21.11,74.84-50.44,173.68-149.96,146.31-135.9-37.37,7.22-264.02-151.23-283.64l-60.21,167.47,74.57,30.12c-3.67,6.62-18.09,39.99-21.66,42.24-6.21,3.92-33.72-10.47-42.17-13.39-48.57-16.82-97.57-33.76-148.21-43.4-3.37-3.56,13.5-45.04,14.54-52.87l67.12,19.01,79.76-238.43c-11.23-.88-23.94,1.21-34.95,0ZM1196.76,623.72c-5.38,3.13-29.27,59.41-33.05,69.32,31.04-12.8,59.79-30.22,84.71-52.81,4.32-.77,40.09,38.27,39.35,41.76-32.9,29.18-69.03,54.53-110.14,70.78-6.71,2.65-26.27,6.35-29.51,9.05-3.64,3.02-11.82,31.88-7.34,36.17,5.7,5.45,65.79,21.93,77.14,24.1,49.55,9.46,156.44,12.53,180.32-43.93,28.39-67.12-62.38-113.48-112.19-132.66-13.27-5.11-80.35-26.98-89.29-21.78Z"/>
    <path class="cls-1" d="M1625.31,1278.76c30.97-63.92,59.36-128.88,78.32-197.63,72.5-262.99,33.82-574-124.57-798.53-227.21-322.11-614.41-335.85-853.76-18.31-203.97,270.6-220.6,664.88-81.37,967.91,3.39,7.38,13.3,21.1,14.85,26.13.99,3.21-.32,4.49-3.53,3.53-4.76-1.42-43.54-23.5-45.7-26.62-9.72-13.98-26.16-62.13-32.72-80.55-110.87-310.94-62.06-710.94,162.7-960.54,265.99-295.38,655.49-241.11,872.32,77.36,192.7,283.04,211.13,679.72,60.34,985.44-5.49,3.95-44.52,24.13-46.86,21.8Z"/>
    <path class="cls-2" d="M914.29,1678.86H147.84c1.34,14.23-7.28,30.13-20,36.64-7.47,3.82-19.44,2.34-21,10.33l.34,299.78c23.95,3.66,37.38,18.08,42.05,41.43h2050.72c4.28-22.23,19.59-37.73,42.05-41.43l.34-299.78c-2.53-7.69-13.4-6.78-21.56-12.19s-14.43-14.17-17.78-23.22c-1.31-3.54-1.08-11.56-1.66-11.56h-790.54c5.64-15.32,11.64-19.66,27.62-14.35l775.13.94c3.74,2.65-.82,29.42,21.53,38.72,8.29,3.45,22.23.88,24.12,9.62l.11,318.29c.71,10.48-11.59,8.32-19.41,11.92-18.43,8.49-22.98,21.46-27.98,39.92l-2076.1-.16c.31-27.55-20.64-43.02-45.94-47.17v-320.5c-.02-10.62,14.87-9.98,23.53-15.03,14.28-8.33,20.2-23.76,25.16-38.68l755.37-.51c8.75.79,15.11,10.52,20.36,17Z"/>
    <path class="cls-1" d="M1389.08,1329.39c-3.02-3.98-4.38.24-4.81,3.56-1.06,8.25.77,17.96-.02,26.53-5.36,58.44-22.47,124.41-56.39,172.64-2.02,2.87-.09,5.9-6.23,4.52-.31-33.67,22.7-59.97,27.8-93.91.38-2.54,3.26-7.84-1.28-7.3-3.32,15.91-9.82,32.63-16.48,47.4-8.59,19.05-33.81,48.03-18.44,68.22,3.74,4.9,13,6.98,13.39,8.8,2.1,9.81-11.29,17.36-9.81,27.41,10.96-10.84,7.87-27.61,28.88-26.5l-2.37,38.54,18-33.78,6.05-7.18-12.12,52.95c-8.04,3.31-11.91-5.68-16.11-6.83-5.27-1.44-10.76,2.9-16.23,2.18-4.97-.65-6.68-5.81-10.22-6.86-4.82-1.43-10.38.6-13.75-.3-1.06-.28-4.69-14.74-15.9-12.25.87-4.49,8.18-4.6,11.29-7.94,2.59-2.78,4.97-9.74,5.54-13.71-4.46,2.75-17.93,19.31-21.56,16.78-1.74-1.21-1.91-11.23-14.56-7.17l16.85-21.67c-5.51-1.47-7.47,6.23-11.18,6.88-4.24.74-11.05-7.86-20.98-2.06-9.17,5.36,8.52,10.72,9.35,11.96,3.84,5.73-3.21,17.07,13.19,14.55-6.73,23.12,8.37,10.19,14.43,13.1,6.25,3,4.28,12.8,4.85,13.41,1.35,1.47,12.8-4.67,19.31-1.3,4.72,2.44,4.09,10.22,8.4,13.29,19.83-22.59,19.92,11.17,24.14,12.08,6.74,1.47,7.52-13.81,8.43-14.44,7-4.86,13.33,11.47,15.67,12.04,7.26.06,6.76-8.71,10.14-12.15,7.63-7.77,18.68-4.35,27.16.1-3.02-33.8,25.85-9.68,9.72,8.48-12.24,13.78-20.41-1.92-25.07-1.09-4.22.75-8.03,14.08-15.25,13.78-15.71-1.56-40.37.69-54.82-2.01-5.97-1.11-8.92-6.37-13.54-8.15-15.76-6.05-46.54-15.31-54.97-31.79-2.79-5.45-1.83-11.96-3.9-15.38-2.96-4.89-17.52-4.17-15.26-22.24,3.44-27.48,25.54-10.23,31.62-11.8,9.38-2.43,36.07-42.55,41.53-52.67,46.13-85.53,48.23-181.64,46.85-275.92-.19-13.28-.15-59.9,8.46-68.85,12.59-13.08,19.94,20.06,22.27,28.48,24.42,88.47,31.37,199,4.33,287.33-5.46,17.83-16.76,46.53-32.5,56.66,26.76-61.69,36.73-129.29,36.09-196.45ZM1352.92,1433.01c1.2-10.03-3.56-10.03-2.36,0h2.36ZM1316.76,1594.49c1.73-3.39-1.52-6.43-2.36-4.8-1.73,3.39,1.52,6.43,2.36,4.8Z"/>
    <path class="cls-1" d="M1073.34,1582.47c-.67.59,1.94,5.6,1.66,8.07-.93,8.24-9.11,20.2-16.19,24.36-6.57,3.85-11.65,2.59-16.69,5-10.84,5.18-25.85,16.4-38.48,19.36-4.28,1-42.27,5.1-46.08,4.78-14.85-1.24-21.74-14.99-25.51-15.65-4.83-.84-5.88,9.13-15.41,6.13-19.19-6.05-12.05-34.59-3.59-32.78,6.02,4.63,3.18,12.74,3.66,19.26,6.91.98,12.34-5.16,19.29-3.75,13.42,2.73,13.89,18.28,15.67,18.24,7.65-.14,7.69-15.96,14.4-14.47,4.01.89,8.6,15.64,14.47,14.43,6.53-1.35-1.07-24.32,14.27-19.03,3.92,1.35,2.55,10,10.95,6.91-.57-23.18,23.11-10.67,24.21-11.96.57-.67-1.27-7.06,2.36-10.92,5.81-6.17,14.32-.28,17.01-2.16,4.19-2.94,1.5-12.65,2.32-13.46.87-.87,8.71.95,9.66.01.55-.55-.66-11.36,2.2-15.33,1.81-2.52,8.75-1.8,9.84-5.17,5-15.36-18.38-3.25-22.94-3.31s-3.13-7.78-10.79-5.09c4.18,8.34,19.21,8.99,16.89,19.25-15.55-3.55-11.91,6.42-16.94,10.81-2.43,2.12-8.41,2.2-12.04,4.87-3.11,2.29-4.22,7.32-5.27,7.92-3.07,1.76-10.41-.35-15.89,2.25-4.17,1.98-4.99,7.81-6.89,8.08-3.2.46-8.57-3.1-13.88-2.6-5.42.51-10.49,6.74-16.74,4.65-6.92-2.32-9.89-34.36-13.63-41.96-.06-2,4.77-1.71,6.07-1.29,1.72.55,12.71,28.71,18.05,31.37,2.19-13.45-4.19-25.39-4.8-38.54,13.09,0,17.09-3.87,19.57,10.51l11.75,20.8c2.58-10.8-11.77-22.65-9.78-32.09.34-1.63,17.95-9.58,17.21-26.89-.46-10.92-22.3-45.79-27.85-59.14-5.53-13.3-10.66-29.15-13.32-43.34l-4.77,1.18c6.83,14.34,9.9,30.17,15.05,45.21,6.9,20.13,19.97,37.3,16.24,59.65l-25.39-38.44c-25.48-55.69-35.77-117.47-37.26-178.45-2.98-3.91-4.36.04-4.81,3.56-1,7.82-.44,20.77-.11,29.08,1.59,40.43,8.83,92.93,20.07,131.77,3.76,12.99,10.81,24.77,13.77,38.02-12.11-10.12-20.63-27.73-25.95-42.7-30.82-86.63-24.22-221.11,4.24-308.01,3.14-9.59,8.86-32.22,20.41-15.51s4.51,122.05,6.16,150.5c3.9,67.3,25.82,173.82,71.05,225.41,3.69,4.21,17.18,18.47,21.71,18.42,3.52-.04,6.56-5.03,13.9-3.63,13.59,2.58,17.53,18.42,11.13,29.49-5.06,8.75-13.08,5.34-14.2,6.32ZM1023.61,1567.14c-1.75-1.91-2.02-4.87-4.51-6.33.19,2.12,3.23,11.55,3.68,12,1.18,1.17,6.11.92,4.8-3.58-.64-2.18-2.76-.76-3.97-2.08ZM1037.19,1584.85c3.5-3.5-6.56-7.62-8.45-9.58-1.12,3.55,5.65,12.38,8.45,9.58Z"/>
    <path class="cls-1" d="M2223.03,220.7c15.46,5,20.75,35,21.63,49.43,4.43,72.44-43.53,109.8-58.52,170.37-13.82,55.82,17.39,76.09,62.12,40.43,6.95-5.54,24.84-30.44,26.8-31.06,9.5-3.04,8.58,9.79,8.2,15.4-2.93,43.72-68.07,82.53-90.18,121.96-8.07,14.39-31.24,66.28-4.44,71.69,22.09,4.46,40.23-28.74,47.64-28.44,12.28.49-6,37-8.88,41.69-9.26,15.1-26.17,28.25-34.6,42.53-13.5,22.9-14.93,53.76-24.8,78.84-10.75,27.31-43.68,65.49-49.39,87.98-2.17,8.54-4.55,18.64,3.21,24.81,10.54,8.37,20.49-1.99,30.07-3.6,8.05-1.35-.32,11.89-2.06,14.84-14.7,25.03-37.5,32.71-58.12,50.34-50.12,42.85-68.02,115.38-105.36,169.4-32.01,46.31-74.53,83.79-112.81,124.57,5.07-36.8,39.8-63.26,61.17-91.85,49.89-66.74,75.48-154.73,83.38-237.17,6.68-69.6,12.27-152.05,9.67-221.73-.11-2.91,1.81-8.97-2.38-8.39l-22.03,258.77c-9.87,59.98-25.36,123.49-58.94,174.85-11.34,17.35-11.82,10.84-20.37,17.97-7.97,6.65-51.02,63.34-56.63,73.74-50.65,93.8,73.16,64.43,118.63,41.5,39.43-19.89,74.9-57.31,92.76-97.64,3.93-8.87,18.06-58.41,22.51-59.46,12.97-3.06,11.26,46.63,10.52,53.93-6.27,61.74-53.64,127.75-105.95,159.17-95.05,57.1-180.94,23.37-279.89,47.89-108.08,26.78-268.45,102.12-319.71,205.71-1.34,2.72-10.66,31.25-12.45,16.52-3.62-29.94,34.06-74.69,54.26-95.22,66.95-68.06,154.04-103.65,243.41-132.58,30.17-9.77,62.12-19.88,93.93-21.76,78.82-4.66,124.68,13.88,201.42-27.55,26.71-14.42,58.12-38.79,71.07-66.28-44.45,50.73-108.7,79.76-175.99,84.28-34.57,2.33-69.49-4.81-103.71-2.48-98.06,6.66-290.46,100.12-356.64,173.6-28.57,31.72-40.76,55.42-47.02,97.64-.62,4.2,1.27,4.06-4.75,3.61.86-59.38,50.87-114.06,93.96-150.65,42.34-35.96,91.13-63.94,142.21-85.56.69-4.06-5.96-2.7-8.26-2.24-5.27,1.07-12.2,4.5-17.45,6.67-75.11,30.98-138.8,79.82-192.42,140.16,4.29-16.76,11.38-32.65,15.52-49.53,2.76-11.29,6.84-48.46,11.16-53.92,5.43-6.85,33.21-24.27,42.24-30.06,144.63-92.6,284.43-91.32,400.86-242.66,157.18-204.32,164.95-631.89-11.78-826.49-46-50.66-90.73-55.67-139.42-89.54-9.49-6.6-7-10.79,2.58-15.9,23.19-12.38,73.66-1.05,98.88,6.02,34.47,9.67,92.22,43.61,124.48,38.97,49.32-7.09,16.87-93.05,1.83-119.49-9.78-17.18-33.32-40.3-39.55-54.44-1.67-3.78-2.28-7.31-1.82-11.41,10.14-9.93,67.1,38.38,75.94,48.16,25.71,28.43,36.16,62.66,57.5,91.93,15.92,21.84,38.56,37.93,58,9.17,17.34-25.64,11.77-66.79,3.81-95.09-5.36-19.06-19.19-40.23-23.06-56.54-3.27-13.79,13.49-2.64,18.26,1.08,41.76,32.55,64.7,105.53,65.14,156.65.21,24.49-14.52,98.51,4.51,113.54,19.93,15.74,42.99-15.55,51.25-31.07,14.63-27.51,16.69-55.47,18.85-86ZM1974.76,148.37c2.17-2.3-3.84-7.76-6.04-9.58-.45,4.01,2.03,13.84,6.04,9.58ZM1979.56,150.81l-4.57,3.36c10.94,16.32,14.81,37.41,22.78,54.49.75,1.61,2.22,9.28,5.92,4.79,2.49-3.02-21.14-54.54-24.13-62.64ZM2141.06,358.06c1.65-1.68-5.46-10.4-6.72-13.74-17.28-45.82,8.49-105.05-3.57-153.09l-6.54-23.54c-3.9,10.45,1.9,22.22,2.35,32.55,1.92,44.66-15.68,100.25.58,141.62.97,2.47,9.26,20.92,13.9,16.2ZM1960.29,423.14c.45-10.21-6.18-19.99-10.77-28.96-24.67-48.22-68.45-98-114.73-126.29-17-10.39-38.16-22.26-57.64-25.48l28.72,15.83c49.85,30.66,92.1,72.39,126.07,119.77l28.35,45.13ZM1907.29,278.51c31.2,12.02,74.23,4.45,72.28-36.11-4.78,3.18-5.58,10.49-9.63,15.64-17.86,22.76-30.44,17.2-55.47,16.69-3.63-.07-5.94-1.18-7.18,3.78ZM2059.13,396.64c.1,2.76-1.04,12.08,1.21,12.08,2.7-2.57.69-8.48,1.21-12.08,1.07-7.51,2.67-11.75,2.52-20.61s-1.48-24.54-2.55-33.59c-.62-5.2-5.29-34.03-8.43-34.99-5.82-1.77-2.61,2.63-2.45,4.86,2.02,28.13,7.48,55.28,8.5,84.33ZM2165.15,480.98c-4.94-59.11,40.69-98.66,53.02-151.83l-40.51,66.72c-9.43,19.67-14.82,40.53-17.3,62.23l4.79,22.88ZM2001.09,348.62c-.9-.6-8.03-1.65-7.01,2.2,1.37.04,3.79-.48,4.34,1.12,17.17,49.7,24.39,106.51,32.49,158.48.44,2.84.59,11.69,4.09,11.54,2.42-43.31-5.96-86.37-18.06-127.72-1.71-5.84-13.84-44.28-15.86-45.62ZM2085.61,512.32c7.76-7.83,15.42-99.31,16.88-115.67-3.41-.57-3.5,4.27-4.09,6.69-8.3,33.62-8.97,71.66-17.39,105.6-1.91,4.17,3.55,4.44,4.6,3.38ZM2006.09,719.59c5-68.56-2.42-147-28.86-210.93-.72-1.74-7.57-20.49-12.09-15.6,15.85,46.43,26.15,94.5,31.31,143.41,2.78,26.32,1.73,53.32,4.82,79.58.42,3.6,1.93,7.33,4.82,3.55ZM2232.65,517.16c-28.34,12.88-60.44,38-66.29,69.84,14.25-22.99,32.29-40.93,54.28-56.55l12.01-13.29ZM2037.42,524.39c-10.48-1.46-1.99,16.3-2.37,21.66l2.37-21.66ZM2141.06,529.21c-3.83-4.63-5.17,3.61-5.95,4.79-11.74,17.72-23.38,39.3-27.76,60.27,6.14-5.74,36.05-62.23,33.71-65.06ZM2044.67,796.73c-.13,1.36-9.95,26.37-3.62,26.54,4.86-7.78,4.5-17.89,6.03-26.54,6.79-38.58,11.13-77.57,17.57-116.19,4.26-25.55,12.72-50.79,13.74-76.62-5.79,3.89-7.04,14.63-8.93,21.17-17.08,59.12-19,111.78-24.79,171.64ZM2078.41,767.78c5.23,1.02,5.6-2.34,7.38-5.86,7.77-15.41,13.09-37.45,20.42-54.3,9.76-22.43,23.09-44.22,30.02-67.56-30.74,35.09-43.18,84.04-57.82,127.72ZM2126.19,822.71c3.73-2.47,20.46-34.08,23.29-40.47l30.14-81.91c-28.68,34.61-33.14,84.82-60.21,121.73.31,2.28,5.47,1.53,6.79.65ZM2066.33,907.59c6.4-26.71,24.64-50.24,28.93-77.12-18.7,20.16-23.89,50.86-33.68,75.96l4.75,1.16ZM1918.92,1107.14c1.5-.86,14.46-26.02,16.59-30.32,22.28-44.96,36.24-97.67,41.64-147.52-3.87.52-4.99,8.74-6,12.04-17.23,55.99-27.5,114.32-59.03,165.11.32,2.28,5.38,1.51,6.8.69ZM2104.92,934.13c-15.27-7.6-64.49,47.3-60.25,50.57,3.69,2.84,5.98-1.13,7.96-2.97,5.55-5.15,9.99-14.04,16.08-19.96,10.83-10.53,24.85-17.82,36.21-27.63ZM1977.15,1131.74c26.93-52.66,46.47-109.15,50.63-168.69-3.79,2.21-5.28,11.93-6.53,16.34-14.26,50.56-22.63,102.22-48.68,148.98l4.58,3.37ZM1969.94,1141.38c.25-.26,1.66-5.89,1.24-7.17l-6.04,5.99c-.3,2.1,4.62,1.36,4.8,1.18ZM1854.25,1218.53c-5.49-1.35-7.94,6.69-10.01,10.44-1.75,3.17-9.01,15.72-6.84,18.46,3.65,4.6,5.18-3.38,5.98-4.75,4.16-7.09,8.73-16.19,10.87-24.15ZM1680.74,1305.26c40.92-8.07,79.54-34.27,108.4-63.87l-108.4,63.87ZM1926.56,1310.13c-11.75-1.22-23.66,4.02-34.98,4.76-52.25,3.4-101.3-15.31-153.09-1.25l-21.6,8.49c24.33-2.2,48.98-7.89,73.62-7.31,46.21,1.09,74.04,13.59,123.58.89,3.4-.87,11.93-1.47,12.46-5.58ZM1567.45,1353.51c-55.22,10.93-99.02,49.17-147.01,75.88,3.11,4.34,5.21,3.51,9.69,2.68,15.38-2.87,52.52-32.38,69.1-41.96,19.5-11.27,42.93-19.66,61.04-30.55,2.62-1.57,6.62-2.41,7.18-6.05Z"/>
    <g>
      <path class="cls-1" d="M2025.39,1775.27c4.17,16.1-17.19,8.66-22.19,22.39l-59.63,176.56c-3.13,8.86-12.29,14.68-20.8,8.49-11.1-8.08-43.08-137.72-50.42-137.58l-46.45,134.34c-2.6,7.15-11.16,6.72-17.53,4.35l-66.9-186.16c-1.45-3.28-3.71-5.84-6.8-7.66-5.68-3.35-21.62-2.59-17.77-11.11,3.74-8.25,21.59-3.04,27.68-3.42,9.98-.62,59.11-6.75,63.64,0,1.39,2.07.55,8.86-2.08,10.72-7.9,5.59-23.7-4.06-21.64,16.52,1.4,13.94,29.61,94.84,36.57,110.56,1.49,3.36,2.42,8,6.65,8.99l36.05-105.04c-1.26-9.48-6.02-23.8-14.98-28.07-8-3.81-16.03.41-13.82-13.9,12.91,2.26,80.55-7.54,85.74-.19,11.33,16.05-21.8,7.15-20.52,25.15,1.18,16.59,28.52,92.52,36.57,110.65,1.49,3.36,2.43,7.99,6.65,8.99l36-114.7c8.99-22.4-30.62-13.12-20.4-30.02,2.81-4.65,6.3.11,7.33.11h59.05Z"/>
      <path class="cls-1" d="M603.37,1954.83c3.28,15.4,25.39,11.95,27.89,15.48,2.6,3.66,1.65,10.39-2.95,11.87-5.81,1.88-70.03,1.56-79.29.48-3.45-.4-6.56.1-8.04-4.03-5.37-15.04,20.81-5.87,23.77-21.44-3.63-49.37,5-105.86.19-154.34-2.27-22.84-28.29-8.49-24.38-26.15.67-3.02,10.49-3.77,13.29-3.96,29.76-2.03,103.86-3.38,129.08,8.52,50,23.58,30.4,96.98-21.73,100.06-.17,1.92-.07,3.63.49,5.53,1.76,6.05,40.98,58.37,47.67,65.62,3.56,3.86,10.82,11.82,15.16,13.76,11.06,4.94,22.12-1.88,18.65,16.3h-51.82c-6.01,0-16.34-13.43-20.38-18.18-18.86-22.17-34.57-49.95-51.75-73.58l-15.84-2.24c2.77,19.01-3.74,48.73,0,66.28ZM603.37,1871.68c42.09,9.98,76.32-11.49,66.41-57.98-2.15-10.08-13.86-23.97-24.23-23.97h-38.56c-.26,0-3.62,3.36-3.62,3.62v78.33Z"/>
      <path class="cls-1" d="M1600.61,1771.07c144.93-18.36,160.73,188.03,37.37,213.32-147.16,30.16-178.19-195.48-37.37-213.32ZM1600.57,1787.9c-67.11,10.72-64.08,156.29-5.94,178.31,100.85,38.19,123.69-197.12,5.94-178.31Z"/>
      <path class="cls-1" d="M948.03,1982.54c-3.47-17.06,6.78-10.69,17.72-17.23,4.28-2.56,6.77-5.79,9.27-10,14.37-24.23,30.39-72.39,41.66-100.54,11.04-27.56,19.68-56.54,32.52-83.15,13.31-4.56,17.07.86,22.2,11.63,14.09,29.62,56.61,167.8,71.26,180.07,4.63,3.88,16.87,6.38,18.86,9.56,1.15,1.84-.92,9.66-1.4,9.66h-80.74c-5.19,0-8.61-8.29-5.78-11.83,1.08-1.35,20.55-2.53,21.55-6.63,1.91-7.81-6-38.28-10.94-44.22-3.78-4.55-34.96-2.11-43.49-2.3s-18.89-5.5-27.63-1.3c-5.05,2.42-16.41,34.65-16.46,41.08-.12,14.44,21.19,10.29,23.62,13.24,1.59,1.93-.66,11.95-3.53,11.95h-68.69ZM1017.92,1900.6h57.84c-9.73-22.19-15.15-48.15-25.44-69.88-1.26-2.66.23-6.1-4.66-4.86-3.86.98-23.88,65.6-27.74,74.73Z"/>
      <path class="cls-1" d="M969.72,1833.11c-16.15,3.27-12.2-18.69-18.79-30.62-1.99-3.6-10.43-12.77-13.74-12.77h-65.08c-7.91,0-1.27,29.59-1.11,34.85.43,14.05-.52,28.24-.1,42.28h44.59c15.83,0,5.77-39.59,25.31-33.74v78.33c0,2.75-9.26,5.17-11.86,3.41-6.13-4.16,3.59-30.56-27.79-33.66-42.24-4.17-30.83,5.77-30.15,34.97.26,11.02-2.26,34.26.37,43.02,4,13.33,38.75,4.97,27.41,21.12-4.08,5.8-20.02-.07-26.57-.26-10.06-.3-59.82,4.78-62.92.26-9.42-13.72,14.76-9.97,20.1-15.17,7.92-7.71,2.8-21.4,2.84-29.48.22-45.81.13-91.61.05-137.41-3.22-11.78-13.43-11.83-24.05-10.9v-12.08c43.72-1.1,87.75,1.49,131.47.11,5.18-.16,30.03-6.52,30.03,1.11v56.64Z"/>
      <path class="cls-1" d="M504.31,1784.72c3.59-2.6,1.42-19.26,14.7-14.29,2.76,20.43,1.72,40.92,2.43,61.45.15,4.42,5.76,15.91-1.24,18.08-9.09,2.83-13.61-23.01-17.61-30.54-22.5-42.28-91.23-45.88-111.77-.03-20.06,44.78-13.3,136.21,47.73,143.6,34.04,4.12,52.07-8.03,73.27-32.25,4.46-5.1,3.67-15.36,12.06-9.46,4.36,32.73-40.08,60-68.98,63.41-151.97,17.94-156.51-232.7,2.41-213.99,7.82.92,44.78,15.63,47.01,14.01Z"/>
      <path class="cls-1" d="M1252.92,1775.27c2.94.83,5.02,7.95,3.62,9.62-2.13,2.54-26.18-.65-28.87,13.33l-.05,167.46h61.46c3.3,0,16.68-10.84,19.17-14.57,6.68-10,8.22-39.56,22.73-25.01-3.84,9.24-3.4,53.59-10.88,56.14-17.6-1.73-145.06,4.23-149.27-1.94-9.63-14.09,15.36-5.82,18.07-23.22,7.17-45.98-5.11-108.79.28-156.62-2.6-19.85-28.28-6.39-24.22-25.19h87.97Z"/>
      <path class="cls-1" d="M1427.66,1775.27c7.02,17.41-28.92,10.08-28.92,20.49v166.3c0,.86,2.65,2.84,3.99,3.24,10.17,3.06,52.86,1.94,62.47-1.86,19.22-7.6,23.06-43.66,33.54-43.65,2.65,0,5.22,1.6,5.84,4.02,2.22,8.58-10.47,44.36-9.55,56.21l-154.12,2.52c-5.88-18.25,13.32-9.67,18.08-19.26,6.41-12.92,3.93-78.95,3.7-97.73-.09-7.03-2.74-13.66-2.7-21.63.08-15.59,10.42-47.31-8.89-55.95-9.05-4.05-17.87,1.36-15.03-12.7h91.59Z"/>
    </g>
    <path class="cls-2" d="M603.37,1871.68v-78.33c0-.26,3.36-3.62,3.62-3.62h38.56c10.37,0,22.08,13.88,24.23,23.97,9.91,46.49-24.33,67.96-66.41,57.98Z"/>
    <path class="cls-2" d="M1600.57,1787.9c117.75-18.81,94.91,216.49-5.94,178.31-58.14-22.01-61.18-167.58,5.94-178.31Z"/>
    <path class="cls-2" d="M1017.92,1900.6c3.86-9.13,23.88-73.75,27.74-74.73,4.89-1.24,3.4,2.2,4.66,4.86,10.29,21.72,15.71,47.69,25.44,69.88h-57.84Z"/>
  </g>
</svg>